<?xml version="1.0" encoding="utf-8"?>
<!-- Generator: Adobe Illustrator 24.0.0, SVG Export Plug-In . SVG Version: 6.00 Build 0)  -->
<svg version="1.1" id="Layer_1" xmlns="http://www.w3.org/2000/svg" xmlns:xlink="http://www.w3.org/1999/xlink" x="0px" y="0px"
	 viewBox="0 0 683.3 531.1" style="enable-background:new 0 0 683.3 531.1;" xml:space="preserve">
<style type="text/css">
	.st0{fill:#FFFFFF;}
	.st1{fill:none;}
	.st2{enable-background:new    ;}
</style>
<g id="Layer_4">
	<path class="st0" d="M220.3,296.8c0-3.2-1.1-5.7-3.3-7.6s-6.1-3.7-11.6-5.4c-9.5-2.9-16.7-6.2-21.7-10.1c-4.9-3.9-7.4-9.2-7.4-15.9
		c0-6.8,2.8-12.3,8.3-16.6c5.6-4.3,12.6-6.4,21.2-6.4c9.1,0,16.5,2.3,22.1,6.9s8.3,10.6,8.1,18.1l-0.1,0.3h-16
		c0-4.1-1.2-7.3-3.7-9.5s-6-3.3-10.5-3.3c-4.1,0-7.2,1-9.5,2.9c-2.2,2-3.3,4.5-3.3,7.5c0,2.8,1.2,5.1,3.6,6.9
		c2.4,1.8,6.6,3.7,12.5,5.7c9.1,2.6,16,5.9,20.7,10.1c4.8,4.1,7.1,9.6,7.1,16.3c0,7.1-2.8,12.6-8.3,16.7s-12.8,6.1-21.9,6.1
		c-8.9,0-16.5-2.2-22.9-6.6c-6.4-4.4-9.5-11-9.3-19.8l0.1-0.3h16c0,4.9,1.4,8.5,4.3,10.8c2.9,2.3,6.8,3.5,11.7,3.5
		c4.4,0,7.8-0.9,10.1-2.8C219.2,302.3,220.3,299.9,220.3,296.8z"/>
	<path class="st0" d="M335.4,248.6h-23.6v69.7h-16.5v-69.7h-23.2v-12.7h63.3V248.6z"/>
	<path class="st0" d="M362.2,318.3h-16.5v-82.5h16.5V318.3z"/>
	<path class="st0" d="M421.2,296.6h0.3l21.2-60.8h21.6v82.5h-16.5V262l-0.3-0.1l-20.4,56.4h-11.2l-20.4-56.5l-0.3,0.1v56.4h-16.5
		v-82.5h21.7L421.2,296.6z"/>
	<path class="st0" d="M526.6,282H496v23.6h36.4v12.7h-52.9v-82.5h52.8v12.8H496v20.7h30.6V282z"/>
	<rect x="120.8" y="106.8" class="st1" width="169.9" height="20.6"/>
	<g class="st2">
		<path class="st0" d="M126.3,106.5H124v19.9h2.4v1.1h-3.7v-22.2h3.7V106.5z"/>
		<path class="st0" d="M142.7,113c-0.3-0.1-0.6-0.1-0.9-0.1c-0.8,0-1.5,0.2-2.1,0.7c-0.6,0.5-1,1.1-1.2,2v8.3H137v-12.2h1.3l0,1.9
			c0.7-1.4,1.9-2.2,3.4-2.2c0.4,0,0.7,0,0.9,0.1L142.7,113z"/>
		<path class="st0" d="M158.3,124.3c-1,0-2-0.3-2.8-0.8c-0.8-0.5-1.5-1.2-1.9-2.1c-0.5-0.9-0.7-1.9-0.7-3.1v-0.5
			c0-1.2,0.2-2.2,0.7-3.2c0.5-0.9,1.1-1.7,1.9-2.2s1.7-0.8,2.6-0.8c1.5,0,2.6,0.5,3.5,1.5c0.9,1,1.3,2.4,1.3,4.1v0.8h-8.7v0.3
			c0,1.4,0.4,2.5,1.2,3.4c0.8,0.9,1.8,1.4,3,1.4c0.7,0,1.4-0.1,1.9-0.4c0.6-0.3,1.1-0.7,1.5-1.3l0.8,0.6
			C161.6,123.6,160.1,124.3,158.3,124.3z M158,112.8c-1,0-1.9,0.4-2.6,1.1c-0.7,0.7-1.1,1.7-1.3,3h7.3v-0.1c0-1.2-0.4-2.1-1-2.9
			S159,112.8,158,112.8z"/>
		<path class="st0" d="M175.7,111.9l0,2c0.4-0.7,1-1.3,1.7-1.7c0.7-0.4,1.4-0.5,2.2-0.5c1.9,0,3.1,0.8,3.6,2.4
			c0.4-0.8,1-1.3,1.7-1.7s1.5-0.6,2.4-0.6c2.6,0,3.9,1.4,4,4.3v8.1h-1.3v-8c0-1.1-0.2-1.9-0.7-2.4c-0.5-0.5-1.2-0.8-2.3-0.8
			c-1,0-1.8,0.3-2.4,0.9s-1,1.4-1.1,2.2v8h-1.3v-8.1c0-1-0.3-1.8-0.7-2.3c-0.5-0.5-1.2-0.8-2.2-0.8c-0.8,0-1.6,0.2-2.2,0.7
			c-0.6,0.5-1.1,1.2-1.3,2.2v8.3h-1.3v-12.2H175.7z"/>
		<path class="st0" d="M203.1,117.8c0-1.2,0.2-2.2,0.7-3.2c0.5-0.9,1.1-1.7,1.9-2.2c0.8-0.5,1.8-0.8,2.8-0.8c1.6,0,2.9,0.6,3.9,1.7
			c1,1.1,1.5,2.6,1.5,4.5v0.3c0,1.2-0.2,2.2-0.7,3.2c-0.5,0.9-1.1,1.7-1.9,2.2s-1.8,0.8-2.8,0.8c-1.6,0-2.9-0.6-3.9-1.7
			c-1-1.1-1.5-2.6-1.5-4.5V117.8z M204.4,118.2c0,1.5,0.4,2.6,1.1,3.6c0.8,0.9,1.7,1.4,3,1.4c1.2,0,2.2-0.5,2.9-1.4
			c0.8-0.9,1.1-2.2,1.1-3.7v-0.3c0-0.9-0.2-1.8-0.5-2.5s-0.8-1.4-1.4-1.8s-1.3-0.6-2.1-0.6c-1.2,0-2.2,0.5-2.9,1.4s-1.1,2.2-1.1,3.7
			V118.2z"/>
		<path class="st0" d="M229.3,122.2l3.7-10.3h1.4l-4.5,12.2h-1.1l-4.6-12.2h1.4L229.3,122.2z"/>
		<path class="st0" d="M253.1,124c-0.1-0.4-0.2-0.9-0.3-1.7c-0.5,0.6-1.1,1.1-1.8,1.4c-0.7,0.3-1.5,0.5-2.3,0.5
			c-1.2,0-2.1-0.3-2.8-1c-0.7-0.7-1.1-1.5-1.1-2.5c0-1.2,0.5-2.1,1.5-2.8c1-0.7,2.4-1,4.1-1h2.4v-1.4c0-0.9-0.3-1.6-0.8-2
			c-0.5-0.5-1.3-0.7-2.3-0.7c-0.9,0-1.7,0.2-2.3,0.7c-0.6,0.5-0.9,1.1-0.9,1.7l-1.3,0c0-1,0.4-1.8,1.3-2.5c0.9-0.7,2-1.1,3.3-1.1
			c1.4,0,2.4,0.3,3.2,1c0.8,0.7,1.2,1.6,1.2,2.8v5.8c0,1.2,0.1,2.1,0.4,2.6v0.1H253.1z M248.8,123.1c0.9,0,1.7-0.2,2.4-0.7
			c0.7-0.4,1.2-1,1.5-1.7V118h-2.4c-1.3,0-2.4,0.3-3.1,0.7s-1.1,1.1-1.1,2c0,0.7,0.3,1.2,0.8,1.7C247.4,122.9,248,123.1,248.8,123.1
			z"/>
		<path class="st0" d="M268.2,124h-1.3v-17.3h1.3V124z"/>
	</g>
	<g class="st2">
		<path class="st0" d="M285.2,105.4h3.7v22.2h-3.7v-1.1h2.4v-19.9h-2.4V105.4z"/>
	</g>
	<rect x="120.8" y="80.2" class="st1" width="169.9" height="20.6"/>
	<g class="st2">
		<path class="st0" d="M126.3,79.9H124v19.9h2.4v1.1h-3.7V78.8h3.7V79.9z"/>
		<path class="st0" d="M134.3,91.2c0-1.2,0.2-2.2,0.7-3.2c0.5-0.9,1.1-1.7,1.9-2.2c0.8-0.5,1.8-0.8,2.8-0.8c1.6,0,2.9,0.6,3.9,1.7
			c1,1.1,1.5,2.6,1.5,4.5v0.3c0,1.2-0.2,2.2-0.7,3.2c-0.5,0.9-1.1,1.7-1.9,2.2s-1.8,0.8-2.8,0.8c-1.6,0-2.9-0.6-3.9-1.7
			c-1-1.1-1.5-2.6-1.5-4.5V91.2z M135.6,91.6c0,1.5,0.4,2.6,1.1,3.6c0.8,0.9,1.7,1.4,3,1.4c1.2,0,2.2-0.5,2.9-1.4
			c0.8-0.9,1.1-2.2,1.1-3.7v-0.3c0-0.9-0.2-1.8-0.5-2.5s-0.8-1.4-1.4-1.8s-1.3-0.6-2.1-0.6c-1.2,0-2.2,0.5-2.9,1.4s-1.1,2.2-1.1,3.7
			V91.6z"/>
		<path class="st0" d="M164.7,91.5c0,1.9-0.4,3.4-1.3,4.5c-0.8,1.1-2,1.7-3.4,1.7c-1.7,0-2.9-0.6-3.8-1.8v6.2h-1.3V85.3h1.2l0.1,1.7
			c0.9-1.3,2.1-1.9,3.8-1.9c1.5,0,2.6,0.5,3.4,1.7c0.8,1.1,1.2,2.6,1.2,4.6V91.5z M163.3,91.3c0-1.6-0.3-2.8-1-3.7s-1.5-1.3-2.7-1.3
			c-0.8,0-1.5,0.2-2.1,0.6c-0.6,0.4-1,1-1.4,1.7v5.8c0.3,0.7,0.8,1.2,1.4,1.6s1.3,0.5,2.1,0.5c1.1,0,2-0.5,2.6-1.4
			C163,94.3,163.3,93,163.3,91.3z"/>
		<path class="st0" d="M184.4,91.5c0,1.9-0.4,3.4-1.3,4.5c-0.8,1.1-2,1.7-3.4,1.7c-1.7,0-2.9-0.6-3.8-1.8v6.2h-1.3V85.3h1.2l0.1,1.7
			c0.9-1.3,2.1-1.9,3.8-1.9c1.5,0,2.6,0.5,3.4,1.7c0.8,1.1,1.2,2.6,1.2,4.6V91.5z M183.1,91.3c0-1.6-0.3-2.8-1-3.7s-1.5-1.3-2.7-1.3
			c-0.8,0-1.5,0.2-2.1,0.6c-0.6,0.4-1,1-1.4,1.7v5.8c0.3,0.7,0.8,1.2,1.4,1.6s1.3,0.5,2.1,0.5c1.1,0,2-0.5,2.6-1.4
			C182.8,94.3,183.1,93,183.1,91.3z"/>
		<path class="st0" d="M193.6,91.2c0-1.2,0.2-2.2,0.7-3.2c0.5-0.9,1.1-1.7,1.9-2.2c0.8-0.5,1.8-0.8,2.8-0.8c1.6,0,2.9,0.6,3.9,1.7
			c1,1.1,1.5,2.6,1.5,4.5v0.3c0,1.2-0.2,2.2-0.7,3.2c-0.5,0.9-1.1,1.7-1.9,2.2s-1.8,0.8-2.8,0.8c-1.6,0-2.9-0.6-3.9-1.7
			c-1-1.1-1.5-2.6-1.5-4.5V91.2z M195,91.6c0,1.5,0.4,2.6,1.1,3.6c0.8,0.9,1.7,1.4,3,1.4c1.2,0,2.2-0.5,2.9-1.4
			c0.8-0.9,1.1-2.2,1.1-3.7v-0.3c0-0.9-0.2-1.8-0.5-2.5s-0.8-1.4-1.4-1.8s-1.3-0.6-2.1-0.6c-1.2,0-2.2,0.5-2.9,1.4s-1.1,2.2-1.1,3.7
			V91.6z"/>
		<path class="st0" d="M221.5,94.4c0-0.7-0.3-1.2-0.8-1.6c-0.5-0.4-1.3-0.7-2.4-0.9s-1.9-0.5-2.5-0.8c-0.6-0.3-1-0.7-1.3-1.1
			c-0.3-0.4-0.4-0.9-0.4-1.5c0-1,0.4-1.8,1.2-2.4s1.8-0.9,3.1-0.9c1.4,0,2.4,0.3,3.3,1c0.8,0.7,1.2,1.5,1.2,2.6h-1.3
			c0-0.7-0.3-1.3-0.9-1.8c-0.6-0.5-1.3-0.7-2.3-0.7c-0.9,0-1.6,0.2-2.1,0.6c-0.5,0.4-0.8,0.9-0.8,1.5c0,0.6,0.2,1.1,0.7,1.4
			c0.4,0.3,1.3,0.6,2.4,0.9c1.2,0.3,2.1,0.6,2.7,0.9c0.6,0.3,1,0.7,1.3,1.1s0.4,1,0.4,1.6c0,1-0.4,1.8-1.2,2.5
			c-0.8,0.6-1.9,0.9-3.2,0.9c-1.4,0-2.6-0.3-3.4-1c-0.9-0.7-1.3-1.6-1.3-2.6h1.3c0.1,0.8,0.4,1.4,1,1.8c0.6,0.4,1.4,0.7,2.4,0.7
			c0.9,0,1.7-0.2,2.3-0.6S221.5,95,221.5,94.4z"/>
		<path class="st0" d="M232.8,81.8c0-0.3,0.1-0.5,0.2-0.6s0.4-0.3,0.7-0.3s0.5,0.1,0.7,0.3c0.2,0.2,0.3,0.4,0.3,0.6
			s-0.1,0.5-0.3,0.6c-0.2,0.2-0.4,0.3-0.7,0.3s-0.5-0.1-0.7-0.3C232.9,82.2,232.8,82,232.8,81.8z M234.4,97.4h-1.3V85.3h1.3V97.4z"
			/>
		<path class="st0" d="M247.1,82.2v3.1h2.5v1.1h-2.5v8.1c0,0.7,0.1,1.2,0.4,1.5c0.2,0.3,0.6,0.5,1.2,0.5c0.2,0,0.6,0,1.1-0.1
			l0.1,1.1c-0.4,0.1-0.8,0.2-1.4,0.2c-0.9,0-1.6-0.3-2-0.8s-0.6-1.3-0.6-2.4v-8.1h-2.2v-1.1h2.2v-3.1H247.1z"/>
		<path class="st0" d="M264.1,97.7c-1,0-2-0.3-2.8-0.8c-0.8-0.5-1.5-1.2-1.9-2.1c-0.5-0.9-0.7-1.9-0.7-3.1v-0.5
			c0-1.2,0.2-2.2,0.7-3.2c0.5-0.9,1.1-1.7,1.9-2.2s1.7-0.8,2.6-0.8c1.5,0,2.6,0.5,3.5,1.5c0.9,1,1.3,2.4,1.3,4.1v0.8H260v0.3
			c0,1.4,0.4,2.5,1.2,3.4c0.8,0.9,1.8,1.4,3,1.4c0.7,0,1.4-0.1,1.9-0.4c0.6-0.3,1.1-0.7,1.5-1.3l0.8,0.6
			C267.4,97,266,97.7,264.1,97.7z M263.9,86.2c-1,0-1.9,0.4-2.6,1.1c-0.7,0.7-1.1,1.7-1.3,3h7.3v-0.1c0-1.2-0.4-2.1-1-2.9
			S264.9,86.2,263.9,86.2z"/>
	</g>
	<g class="st2">
		<path class="st0" d="M285.2,78.8h3.7v22.2h-3.7v-1.1h2.4V79.9h-2.4V78.8z"/>
	</g>
	<rect x="121.2" y="53.6" class="st1" width="169.9" height="20.6"/>
	<g class="st2">
		<path class="st0" d="M126.7,53.3h-2.4v19.9h2.4v1.1H123V52.1h3.7V53.3z"/>
		<path class="st0" d="M140.9,69.9c0.9,0,1.7-0.3,2.4-0.8c0.6-0.5,1-1.2,1-2h1.3c0,0.7-0.3,1.4-0.7,2s-1,1.1-1.7,1.4
			c-0.7,0.3-1.5,0.5-2.3,0.5c-1.6,0-2.9-0.6-3.8-1.7c-0.9-1.1-1.4-2.6-1.4-4.5v-0.4c0-1.2,0.2-2.3,0.6-3.2c0.4-0.9,1-1.6,1.8-2.1
			c0.8-0.5,1.7-0.8,2.7-0.8c1.3,0,2.4,0.4,3.3,1.2c0.9,0.8,1.3,1.8,1.4,3.1h-1.3c-0.1-1-0.4-1.7-1-2.3c-0.6-0.6-1.4-0.9-2.4-0.9
			c-1.2,0-2.2,0.4-2.8,1.3c-0.7,0.9-1,2.1-1,3.7V65c0,1.5,0.3,2.8,1,3.6C138.7,69.5,139.7,69.9,140.9,69.9z"/>
		<path class="st0" d="M155.5,64.6c0-1.2,0.2-2.2,0.7-3.2c0.5-0.9,1.1-1.7,1.9-2.2c0.8-0.5,1.8-0.8,2.8-0.8c1.6,0,2.9,0.6,3.9,1.7
			c1,1.1,1.5,2.6,1.5,4.5v0.3c0,1.2-0.2,2.2-0.7,3.2c-0.5,0.9-1.1,1.7-1.9,2.2s-1.8,0.8-2.8,0.8c-1.6,0-2.9-0.6-3.9-1.7
			c-1-1.1-1.5-2.6-1.5-4.5V64.6z M156.9,64.9c0,1.5,0.4,2.6,1.1,3.6c0.8,0.9,1.7,1.4,3,1.4c1.2,0,2.2-0.5,2.9-1.4
			c0.8-0.9,1.1-2.2,1.1-3.7v-0.3c0-0.9-0.2-1.8-0.5-2.5s-0.8-1.4-1.4-1.8s-1.3-0.6-2.1-0.6c-1.2,0-2.2,0.5-2.9,1.4s-1.1,2.2-1.1,3.7
			V64.9z"/>
		<path class="st0" d="M178.4,58.7l0,2.1c0.5-0.7,1-1.3,1.7-1.7c0.7-0.4,1.4-0.6,2.3-0.6c1.3,0,2.3,0.4,2.9,1.1s1,1.8,1,3.3v8h-1.3
			v-8c0-1.1-0.2-1.9-0.7-2.4c-0.5-0.5-1.2-0.8-2.2-0.8c-0.8,0-1.6,0.3-2.2,0.8c-0.6,0.5-1.1,1.2-1.4,2.1v8.3h-1.3V58.7H178.4z"/>
		<path class="st0" d="M199.8,55.6v3.1h2.5v1.1h-2.5v8.1c0,0.7,0.1,1.2,0.4,1.5c0.2,0.3,0.6,0.5,1.2,0.5c0.2,0,0.6,0,1.1-0.1
			l0.1,1.1c-0.4,0.1-0.8,0.2-1.4,0.2c-0.9,0-1.6-0.3-2-0.8s-0.6-1.3-0.6-2.4v-8.1h-2.2v-1.1h2.2v-3.1H199.8z"/>
		<path class="st0" d="M218.7,59.8c-0.3-0.1-0.6-0.1-0.9-0.1c-0.8,0-1.5,0.2-2.1,0.7c-0.6,0.5-1,1.1-1.2,2v8.3h-1.3V58.7h1.3l0,1.9
			c0.7-1.4,1.9-2.2,3.4-2.2c0.4,0,0.7,0,0.9,0.1L218.7,59.8z"/>
		<path class="st0" d="M236,70.8c-0.1-0.4-0.2-0.9-0.3-1.7c-0.5,0.6-1.1,1.1-1.8,1.4c-0.7,0.3-1.5,0.5-2.3,0.5c-1.2,0-2.1-0.3-2.8-1
			c-0.7-0.7-1.1-1.5-1.1-2.5c0-1.2,0.5-2.1,1.5-2.8c1-0.7,2.4-1,4.1-1h2.4v-1.4c0-0.9-0.3-1.6-0.8-2c-0.5-0.5-1.3-0.7-2.3-0.7
			c-0.9,0-1.7,0.2-2.3,0.7c-0.6,0.5-0.9,1.1-0.9,1.7l-1.3,0c0-1,0.4-1.8,1.3-2.5c0.9-0.7,2-1.1,3.3-1.1c1.4,0,2.4,0.3,3.2,1
			c0.8,0.7,1.2,1.6,1.2,2.8v5.8c0,1.2,0.1,2.1,0.4,2.6v0.1H236z M231.8,69.9c0.9,0,1.7-0.2,2.4-0.7c0.7-0.4,1.2-1,1.5-1.7v-2.7h-2.4
			c-1.3,0-2.4,0.3-3.1,0.7s-1.1,1.1-1.1,2c0,0.7,0.3,1.2,0.8,1.7C230.3,69.6,231,69.9,231.8,69.9z"/>
		<path class="st0" d="M254.3,59.8c-0.3-0.1-0.6-0.1-0.9-0.1c-0.8,0-1.5,0.2-2.1,0.7c-0.6,0.5-1,1.1-1.2,2v8.3h-1.3V58.7h1.3l0,1.9
			c0.7-1.4,1.9-2.2,3.4-2.2c0.4,0,0.7,0,0.9,0.1L254.3,59.8z"/>
		<path class="st0" d="M268.4,68.9l3.5-10.2h1.4l-5.2,14.2l-0.3,0.6c-0.7,1.5-1.7,2.2-3.1,2.2c-0.3,0-0.7-0.1-1-0.2l0-1.1l0.7,0.1
			c0.7,0,1.2-0.2,1.6-0.5c0.4-0.3,0.8-0.9,1-1.7l0.6-1.6l-4.6-12h1.5L268.4,68.9z"/>
	</g>
	<g class="st2">
		<path class="st0" d="M285.6,52.1h3.7v22.2h-3.7v-1.1h2.4V53.3h-2.4V52.1z"/>
	</g>
	<rect x="120.8" y="133.4" class="st1" width="169.9" height="20.6"/>
	<g class="st2">
		<path class="st0" d="M126.3,133.1H124V153h2.4v1.1h-3.7V132h3.7V133.1z"/>
		<path class="st0" d="M145.7,150.9c-1,0-2-0.3-2.8-0.8c-0.8-0.5-1.5-1.2-1.9-2.1c-0.5-0.9-0.7-1.9-0.7-3.1v-0.5
			c0-1.2,0.2-2.2,0.7-3.2c0.5-0.9,1.1-1.7,1.9-2.2s1.7-0.8,2.6-0.8c1.5,0,2.6,0.5,3.5,1.5c0.9,1,1.3,2.4,1.3,4.1v0.8h-8.7v0.3
			c0,1.4,0.4,2.5,1.2,3.4c0.8,0.9,1.8,1.4,3,1.4c0.7,0,1.4-0.1,1.9-0.4c0.6-0.3,1.1-0.7,1.5-1.3l0.8,0.6
			C149.1,150.2,147.6,150.9,145.7,150.9z M145.5,139.4c-1,0-1.9,0.4-2.6,1.1c-0.7,0.7-1.1,1.7-1.3,3h7.3v-0.1c0-1.2-0.4-2.1-1-2.9
			S146.5,139.4,145.5,139.4z"/>
		<path class="st0" d="M165.4,144.5c0-1.9,0.4-3.4,1.3-4.5c0.8-1.1,2-1.7,3.4-1.7c1.7,0,2.9,0.7,3.8,2l0.1-1.8h1.3v11.9
			c0,1.6-0.4,2.8-1.3,3.7c-0.9,0.9-2.1,1.4-3.6,1.4c-0.8,0-1.7-0.2-2.4-0.6c-0.8-0.4-1.4-0.9-1.8-1.5l0.8-0.8c1,1.2,2.1,1.8,3.4,1.8
			c1.1,0,2-0.3,2.6-1c0.6-0.7,1-1.6,1-2.8v-1.5c-0.9,1.2-2.1,1.8-3.8,1.8c-1.4,0-2.5-0.6-3.4-1.7s-1.3-2.6-1.3-4.5V144.5z
			 M166.7,144.7c0,1.5,0.3,2.8,0.9,3.7s1.5,1.3,2.6,1.3c1.7,0,2.8-0.7,3.5-2.2v-5.6c-0.3-0.8-0.8-1.4-1.4-1.8s-1.3-0.6-2.1-0.6
			c-1.1,0-2,0.4-2.6,1.3C167,141.7,166.7,143,166.7,144.7z"/>
		<path class="st0" d="M197.3,139.7c-0.3-0.1-0.6-0.1-0.9-0.1c-0.8,0-1.5,0.2-2.1,0.7c-0.6,0.5-1,1.1-1.2,2v8.3h-1.3v-12.2h1.3
			l0,1.9c0.7-1.4,1.9-2.2,3.4-2.2c0.4,0,0.7,0,0.9,0.1L197.3,139.7z"/>
		<path class="st0" d="M216.9,150.9c-1,0-2-0.3-2.8-0.8c-0.8-0.5-1.5-1.2-1.9-2.1c-0.5-0.9-0.7-1.9-0.7-3.1v-0.5
			c0-1.2,0.2-2.2,0.7-3.2c0.5-0.9,1.1-1.7,1.9-2.2s1.7-0.8,2.6-0.8c1.5,0,2.6,0.5,3.5,1.5c0.9,1,1.3,2.4,1.3,4.1v0.8h-8.7v0.3
			c0,1.4,0.4,2.5,1.2,3.4c0.8,0.9,1.8,1.4,3,1.4c0.7,0,1.4-0.1,1.9-0.4c0.6-0.3,1.1-0.7,1.5-1.3l0.8,0.6
			C220.2,150.2,218.8,150.9,216.9,150.9z M216.6,139.4c-1,0-1.9,0.4-2.6,1.1c-0.7,0.7-1.1,1.7-1.3,3h7.3v-0.1c0-1.2-0.4-2.1-1-2.9
			S217.7,139.4,216.6,139.4z"/>
		<path class="st0" d="M244.3,147.6c0-0.7-0.3-1.2-0.8-1.6c-0.5-0.4-1.3-0.7-2.4-0.9s-1.9-0.5-2.5-0.8c-0.6-0.3-1-0.7-1.3-1.1
			c-0.3-0.4-0.4-0.9-0.4-1.5c0-1,0.4-1.8,1.2-2.4s1.8-0.9,3.1-0.9c1.4,0,2.4,0.3,3.3,1c0.8,0.7,1.2,1.5,1.2,2.6h-1.3
			c0-0.7-0.3-1.3-0.9-1.8c-0.6-0.5-1.3-0.7-2.3-0.7c-0.9,0-1.6,0.2-2.1,0.6c-0.5,0.4-0.8,0.9-0.8,1.5c0,0.6,0.2,1.1,0.7,1.4
			c0.4,0.3,1.3,0.6,2.4,0.9c1.2,0.3,2.1,0.6,2.7,0.9c0.6,0.3,1,0.7,1.3,1.1s0.4,1,0.4,1.6c0,1-0.4,1.8-1.2,2.5
			c-0.8,0.6-1.9,0.9-3.2,0.9c-1.4,0-2.6-0.3-3.4-1c-0.9-0.7-1.3-1.6-1.3-2.6h1.3c0.1,0.8,0.4,1.4,1,1.8c0.6,0.4,1.4,0.7,2.4,0.7
			c0.9,0,1.7-0.2,2.3-0.6S244.3,148.2,244.3,147.6z"/>
		<path class="st0" d="M269,147.6c0-0.7-0.3-1.2-0.8-1.6c-0.5-0.4-1.3-0.7-2.4-0.9s-1.9-0.5-2.5-0.8c-0.6-0.3-1-0.7-1.3-1.1
			c-0.3-0.4-0.4-0.9-0.4-1.5c0-1,0.4-1.8,1.2-2.4s1.8-0.9,3.1-0.9c1.4,0,2.4,0.3,3.3,1c0.8,0.7,1.2,1.5,1.2,2.6h-1.3
			c0-0.7-0.3-1.3-0.9-1.8c-0.6-0.5-1.3-0.7-2.3-0.7c-0.9,0-1.6,0.2-2.1,0.6c-0.5,0.4-0.8,0.9-0.8,1.5c0,0.6,0.2,1.1,0.7,1.4
			c0.4,0.3,1.3,0.6,2.4,0.9c1.2,0.3,2.1,0.6,2.7,0.9c0.6,0.3,1,0.7,1.3,1.1s0.4,1,0.4,1.6c0,1-0.4,1.8-1.2,2.5
			c-0.8,0.6-1.9,0.9-3.2,0.9c-1.4,0-2.6-0.3-3.4-1c-0.9-0.7-1.3-1.6-1.3-2.6h1.3c0.1,0.8,0.4,1.4,1,1.8c0.6,0.4,1.4,0.7,2.4,0.7
			c0.9,0,1.7-0.2,2.3-0.6S269,148.2,269,147.6z"/>
	</g>
	<g class="st2">
		<path class="st0" d="M285.2,132h3.7v22.2h-3.7V153h2.4v-19.9h-2.4V132z"/>
	</g>
	<rect x="120.8" y="160.1" class="st1" width="169.9" height="20.6"/>
	<g class="st2">
		<path class="st0" d="M126.3,159.7H124v19.9h2.4v1.1h-3.7v-22.2h3.7V159.7z"/>
		<path class="st0" d="M139.3,174.2c0-0.7-0.3-1.2-0.8-1.6c-0.5-0.4-1.3-0.7-2.4-0.9s-1.9-0.5-2.5-0.8c-0.6-0.3-1-0.7-1.3-1.1
			c-0.3-0.4-0.4-0.9-0.4-1.5c0-1,0.4-1.8,1.2-2.4s1.8-0.9,3.1-0.9c1.4,0,2.4,0.3,3.3,1c0.8,0.7,1.2,1.5,1.2,2.6h-1.3
			c0-0.7-0.3-1.3-0.9-1.8c-0.6-0.5-1.3-0.7-2.3-0.7c-0.9,0-1.6,0.2-2.1,0.6c-0.5,0.4-0.8,0.9-0.8,1.5c0,0.6,0.2,1.1,0.7,1.4
			c0.4,0.3,1.3,0.6,2.4,0.9c1.2,0.3,2.1,0.6,2.7,0.9c0.6,0.3,1,0.7,1.3,1.1s0.4,1,0.4,1.6c0,1-0.4,1.8-1.2,2.5
			c-0.8,0.6-1.9,0.9-3.2,0.9c-1.4,0-2.6-0.3-3.4-1c-0.9-0.7-1.3-1.6-1.3-2.6h1.3c0.1,0.8,0.4,1.4,1,1.8c0.6,0.4,1.4,0.7,2.4,0.7
			c0.9,0,1.7-0.2,2.3-0.6S139.3,174.8,139.3,174.2z"/>
		<path class="st0" d="M152.4,177.5c-1,0-2-0.3-2.8-0.8c-0.8-0.5-1.5-1.2-1.9-2.1c-0.5-0.9-0.7-1.9-0.7-3.1v-0.5
			c0-1.2,0.2-2.2,0.7-3.2c0.5-0.9,1.1-1.7,1.9-2.2s1.7-0.8,2.6-0.8c1.5,0,2.6,0.5,3.5,1.5c0.9,1,1.3,2.4,1.3,4.1v0.8h-8.7v0.3
			c0,1.4,0.4,2.5,1.2,3.4c0.8,0.9,1.8,1.4,3,1.4c0.7,0,1.4-0.1,1.9-0.4c0.6-0.3,1.1-0.7,1.5-1.3l0.8,0.6
			C155.7,176.8,154.2,177.5,152.4,177.5z M152.1,166c-1,0-1.9,0.4-2.6,1.1c-0.7,0.7-1.1,1.7-1.3,3h7.3V170c0-1.2-0.4-2.1-1-2.9
			S153.1,166,152.1,166z"/>
		<path class="st0" d="M173.3,171.3c0,1.9-0.4,3.4-1.3,4.5c-0.8,1.1-2,1.7-3.4,1.7c-1.7,0-2.9-0.6-3.8-1.8v6.2h-1.3v-16.8h1.2
			l0.1,1.7c0.9-1.3,2.1-1.9,3.8-1.9c1.5,0,2.6,0.5,3.4,1.7c0.8,1.1,1.2,2.6,1.2,4.6V171.3z M171.9,171.1c0-1.6-0.3-2.8-1-3.7
			s-1.5-1.3-2.7-1.3c-0.8,0-1.5,0.2-2.1,0.6c-0.6,0.4-1,1-1.4,1.7v5.8c0.3,0.7,0.8,1.2,1.4,1.6s1.3,0.5,2.1,0.5c1.1,0,2-0.5,2.6-1.4
			C171.6,174.1,171.9,172.8,171.9,171.1z"/>
		<path class="st0" d="M187.9,177.3c-0.1-0.4-0.2-0.9-0.3-1.7c-0.5,0.6-1.1,1.1-1.8,1.4c-0.7,0.3-1.5,0.5-2.3,0.5
			c-1.2,0-2.1-0.3-2.8-1c-0.7-0.7-1.1-1.5-1.1-2.5c0-1.2,0.5-2.1,1.5-2.8c1-0.7,2.4-1,4.1-1h2.4v-1.4c0-0.9-0.3-1.6-0.8-2
			c-0.5-0.5-1.3-0.7-2.3-0.7c-0.9,0-1.7,0.2-2.3,0.7c-0.6,0.5-0.9,1.1-0.9,1.7l-1.3,0c0-1,0.4-1.8,1.3-2.5c0.9-0.7,2-1.1,3.3-1.1
			c1.4,0,2.4,0.3,3.2,1c0.8,0.7,1.2,1.6,1.2,2.8v5.8c0,1.2,0.1,2.1,0.4,2.6v0.1H187.9z M183.7,176.3c0.9,0,1.7-0.2,2.4-0.7
			c0.7-0.4,1.2-1,1.5-1.7v-2.7h-2.4c-1.3,0-2.4,0.3-3.1,0.7s-1.1,1.1-1.1,2c0,0.7,0.3,1.2,0.8,1.7
			C182.2,176.1,182.9,176.3,183.7,176.3z"/>
		<path class="st0" d="M202.1,166.3c-0.3-0.1-0.6-0.1-0.9-0.1c-0.8,0-1.5,0.2-2.1,0.7c-0.6,0.5-1,1.1-1.2,2v8.3h-1.3v-12.2h1.3
			l0,1.9c0.7-1.4,1.9-2.2,3.4-2.2c0.4,0,0.7,0,0.9,0.1L202.1,166.3z"/>
		<path class="st0" d="M215.5,177.3c-0.1-0.4-0.2-0.9-0.3-1.7c-0.5,0.6-1.1,1.1-1.8,1.4c-0.7,0.3-1.5,0.5-2.3,0.5
			c-1.2,0-2.1-0.3-2.8-1c-0.7-0.7-1.1-1.5-1.1-2.5c0-1.2,0.5-2.1,1.5-2.8c1-0.7,2.4-1,4.1-1h2.4v-1.4c0-0.9-0.3-1.6-0.8-2
			c-0.5-0.5-1.3-0.7-2.3-0.7c-0.9,0-1.7,0.2-2.3,0.7c-0.6,0.5-0.9,1.1-0.9,1.7l-1.3,0c0-1,0.4-1.8,1.3-2.5c0.9-0.7,2-1.1,3.3-1.1
			c1.4,0,2.4,0.3,3.2,1c0.8,0.7,1.2,1.6,1.2,2.8v5.8c0,1.2,0.1,2.1,0.4,2.6v0.1H215.5z M211.2,176.3c0.9,0,1.7-0.2,2.4-0.7
			c0.7-0.4,1.2-1,1.5-1.7v-2.7h-2.4c-1.3,0-2.4,0.3-3.1,0.7s-1.1,1.1-1.1,2c0,0.7,0.3,1.2,0.8,1.7
			C209.8,176.1,210.4,176.3,211.2,176.3z"/>
		<path class="st0" d="M226.2,162v3.1h2.5v1.1h-2.5v8.1c0,0.7,0.1,1.2,0.4,1.5c0.2,0.3,0.6,0.5,1.2,0.5c0.2,0,0.6,0,1.1-0.1l0.1,1.1
			c-0.4,0.1-0.8,0.2-1.4,0.2c-0.9,0-1.6-0.3-2-0.8s-0.6-1.3-0.6-2.4v-8.1h-2.2v-1.1h2.2V162H226.2z"/>
		<path class="st0" d="M235.4,161.6c0-0.3,0.1-0.5,0.2-0.6s0.4-0.3,0.7-0.3s0.5,0.1,0.7,0.3c0.2,0.2,0.3,0.4,0.3,0.6
			s-0.1,0.5-0.3,0.6c-0.2,0.2-0.4,0.3-0.7,0.3s-0.5-0.1-0.7-0.3C235.5,162.1,235.4,161.9,235.4,161.6z M237,177.3h-1.3v-12.2h1.3
			V177.3z"/>
		<path class="st0" d="M243.9,171c0-1.2,0.2-2.2,0.7-3.2c0.5-0.9,1.1-1.7,1.9-2.2c0.8-0.5,1.8-0.8,2.8-0.8c1.6,0,2.9,0.6,3.9,1.7
			c1,1.1,1.5,2.6,1.5,4.5v0.3c0,1.2-0.2,2.2-0.7,3.2c-0.5,0.9-1.1,1.7-1.9,2.2s-1.8,0.8-2.8,0.8c-1.6,0-2.9-0.6-3.9-1.7
			c-1-1.1-1.5-2.6-1.5-4.5V171z M245.2,171.4c0,1.5,0.4,2.6,1.1,3.6c0.8,0.9,1.7,1.4,3,1.4c1.2,0,2.2-0.5,2.9-1.4
			c0.8-0.9,1.1-2.2,1.1-3.7V171c0-0.9-0.2-1.8-0.5-2.5s-0.8-1.4-1.4-1.8s-1.3-0.6-2.1-0.6c-1.2,0-2.2,0.5-2.9,1.4s-1.1,2.2-1.1,3.7
			V171.4z"/>
		<path class="st0" d="M262.7,165.1l0,2.1c0.5-0.7,1-1.3,1.7-1.7c0.7-0.4,1.4-0.6,2.3-0.6c1.3,0,2.3,0.4,2.9,1.1s1,1.8,1,3.3v8h-1.3
			v-8c0-1.1-0.2-1.9-0.7-2.4c-0.5-0.5-1.2-0.8-2.2-0.8c-0.8,0-1.6,0.3-2.2,0.8c-0.6,0.5-1.1,1.2-1.4,2.1v8.3h-1.3v-12.2H262.7z"/>
	</g>
	<g class="st2">
		<path class="st0" d="M285.2,158.6h3.7v22.2h-3.7v-1.1h2.4v-19.9h-2.4V158.6z"/>
	</g>
	<rect x="120.8" y="186.7" class="st1" width="169.9" height="20.6"/>
	<g class="st2">
		<path class="st0" d="M126.3,186.3H124v19.9h2.4v1.1h-3.7v-22.2h3.7V186.3z"/>
		<path class="st0" d="M132.5,197.7c0-1.9,0.4-3.4,1.3-4.5c0.8-1.1,2-1.7,3.4-1.7c1.6,0,2.9,0.6,3.8,1.9v-6.8h1.3v17.3H141l-0.1-1.6
			c-0.9,1.2-2.1,1.8-3.8,1.8c-1.4,0-2.5-0.6-3.4-1.7c-0.9-1.1-1.3-2.6-1.3-4.6V197.7z M133.9,197.9c0,1.5,0.3,2.8,0.9,3.7
			s1.5,1.3,2.6,1.3c1.7,0,2.8-0.7,3.5-2.2V195c-0.7-1.6-1.9-2.4-3.5-2.4c-1.1,0-2,0.4-2.6,1.3C134.2,194.9,133.9,196.2,133.9,197.9z
			"/>
		<path class="st0" d="M155.5,204.1c-1,0-2-0.3-2.8-0.8c-0.8-0.5-1.5-1.2-1.9-2.1c-0.5-0.9-0.7-1.9-0.7-3.1v-0.5
			c0-1.2,0.2-2.2,0.7-3.2c0.5-0.9,1.1-1.7,1.9-2.2s1.7-0.8,2.6-0.8c1.5,0,2.6,0.5,3.5,1.5c0.9,1,1.3,2.4,1.3,4.1v0.8h-8.7v0.3
			c0,1.4,0.4,2.5,1.2,3.4c0.8,0.9,1.8,1.4,3,1.4c0.7,0,1.4-0.1,1.9-0.4c0.6-0.3,1.1-0.7,1.5-1.3l0.8,0.6
			C158.8,203.4,157.4,204.1,155.5,204.1z M155.3,192.6c-1,0-1.9,0.4-2.6,1.1c-0.7,0.7-1.1,1.7-1.3,3h7.3v-0.1c0-1.2-0.4-2.1-1-2.9
			S156.3,192.6,155.3,192.6z"/>
		<path class="st0" d="M167.1,197.7c0-1.9,0.4-3.4,1.3-4.5c0.8-1.1,2-1.7,3.4-1.7c1.6,0,2.9,0.6,3.8,1.9v-6.8h1.3v17.3h-1.3
			l-0.1-1.6c-0.9,1.2-2.1,1.8-3.8,1.8c-1.4,0-2.5-0.6-3.4-1.7c-0.9-1.1-1.3-2.6-1.3-4.6V197.7z M168.5,197.9c0,1.5,0.3,2.8,0.9,3.7
			s1.5,1.3,2.6,1.3c1.7,0,2.8-0.7,3.5-2.2V195c-0.7-1.6-1.9-2.4-3.5-2.4c-1.1,0-2,0.4-2.6,1.3C168.8,194.9,168.5,196.2,168.5,197.9z
			"/>
		<path class="st0" d="M193.3,202.3c-0.8,1.2-2.1,1.8-3.9,1.8c-1.3,0-2.3-0.4-3-1.1c-0.7-0.8-1-1.9-1-3.3v-7.9h1.3v7.7
			c0,2.3,0.9,3.5,2.8,3.5c1.9,0,3.2-0.8,3.7-2.4v-8.8h1.3v12.2h-1.3L193.3,202.3z"/>
		<path class="st0" d="M207.6,203c0.9,0,1.7-0.3,2.4-0.8c0.6-0.5,1-1.2,1-2h1.3c0,0.7-0.3,1.4-0.7,2s-1,1.1-1.7,1.4
			c-0.7,0.3-1.5,0.5-2.3,0.5c-1.6,0-2.9-0.6-3.8-1.7c-0.9-1.1-1.4-2.6-1.4-4.5v-0.4c0-1.2,0.2-2.3,0.6-3.2c0.4-0.9,1-1.6,1.8-2.1
			c0.8-0.5,1.7-0.8,2.7-0.8c1.3,0,2.4,0.4,3.3,1.2c0.9,0.8,1.3,1.8,1.4,3.1h-1.3c-0.1-1-0.4-1.7-1-2.3c-0.6-0.6-1.4-0.9-2.4-0.9
			c-1.2,0-2.2,0.4-2.8,1.3c-0.7,0.9-1,2.1-1,3.7v0.4c0,1.5,0.3,2.8,1,3.6C205.4,202.5,206.3,203,207.6,203z"/>
		<path class="st0" d="M222,188.6v3.1h2.5v1.1H222v8.1c0,0.7,0.1,1.2,0.4,1.5c0.2,0.3,0.6,0.5,1.2,0.5c0.2,0,0.6,0,1.1-0.1l0.1,1.1
			c-0.4,0.1-0.8,0.2-1.4,0.2c-0.9,0-1.6-0.3-2-0.8s-0.6-1.3-0.6-2.4v-8.1h-2.2v-1.1h2.2v-3.1H222z"/>
		<path class="st0" d="M232.2,188.2c0-0.3,0.1-0.5,0.2-0.6s0.4-0.3,0.7-0.3s0.5,0.1,0.7,0.3c0.2,0.2,0.3,0.4,0.3,0.6
			s-0.1,0.5-0.3,0.6c-0.2,0.2-0.4,0.3-0.7,0.3s-0.5-0.1-0.7-0.3C232.3,188.7,232.2,188.5,232.2,188.2z M233.8,203.9h-1.3v-12.2h1.3
			V203.9z"/>
		<path class="st0" d="M241.7,197.6c0-1.2,0.2-2.2,0.7-3.2c0.5-0.9,1.1-1.7,1.9-2.2c0.8-0.5,1.8-0.8,2.8-0.8c1.6,0,2.9,0.6,3.9,1.7
			c1,1.1,1.5,2.6,1.5,4.5v0.3c0,1.2-0.2,2.2-0.7,3.2c-0.5,0.9-1.1,1.7-1.9,2.2s-1.8,0.8-2.8,0.8c-1.6,0-2.9-0.6-3.9-1.7
			c-1-1.1-1.5-2.6-1.5-4.5V197.6z M243,198c0,1.5,0.4,2.6,1.1,3.6c0.8,0.9,1.7,1.4,3,1.4c1.2,0,2.2-0.5,2.9-1.4
			c0.8-0.9,1.1-2.2,1.1-3.7v-0.3c0-0.9-0.2-1.8-0.5-2.5s-0.8-1.4-1.4-1.8s-1.3-0.6-2.1-0.6c-1.2,0-2.2,0.5-2.9,1.4s-1.1,2.2-1.1,3.7
			V198z"/>
		<path class="st0" d="M261.6,191.7l0,2.1c0.5-0.7,1-1.3,1.7-1.7c0.7-0.4,1.4-0.6,2.3-0.6c1.3,0,2.3,0.4,2.9,1.1s1,1.8,1,3.3v8h-1.3
			v-8c0-1.1-0.2-1.9-0.7-2.4c-0.5-0.5-1.2-0.8-2.2-0.8c-0.8,0-1.6,0.3-2.2,0.8c-0.6,0.5-1.1,1.2-1.4,2.1v8.3h-1.3v-12.2H261.6z"/>
	</g>
	<g class="st2">
		<path class="st0" d="M285.2,185.2h3.7v22.2h-3.7v-1.1h2.4v-19.9h-2.4V185.2z"/>
	</g>
	<rect x="120.8" y="374.8" class="st1" width="169.9" height="20.6"/>
	<g class="st2">
		<path class="st0" d="M126.3,374.5H124v19.9h2.4v1.1h-3.7v-22.2h3.7V374.5z"/>
		<path class="st0" d="M140.3,388.9c0-0.7-0.3-1.2-0.8-1.6c-0.5-0.4-1.3-0.7-2.4-0.9s-1.9-0.5-2.5-0.8c-0.6-0.3-1-0.7-1.3-1.1
			c-0.3-0.4-0.4-0.9-0.4-1.5c0-1,0.4-1.8,1.2-2.4s1.8-0.9,3.1-0.9c1.4,0,2.4,0.3,3.3,1c0.8,0.7,1.2,1.5,1.2,2.6h-1.3
			c0-0.7-0.3-1.3-0.9-1.8c-0.6-0.5-1.3-0.7-2.3-0.7c-0.9,0-1.6,0.2-2.1,0.6c-0.5,0.4-0.8,0.9-0.8,1.5c0,0.6,0.2,1.1,0.7,1.4
			c0.4,0.3,1.3,0.6,2.4,0.9c1.2,0.3,2.1,0.6,2.7,0.9c0.6,0.3,1,0.7,1.3,1.1s0.4,1,0.4,1.6c0,1-0.4,1.8-1.2,2.5
			c-0.8,0.6-1.9,0.9-3.2,0.9c-1.4,0-2.6-0.3-3.4-1c-0.9-0.7-1.3-1.6-1.3-2.6h1.3c0.1,0.8,0.4,1.4,1,1.8c0.6,0.4,1.4,0.7,2.4,0.7
			c0.9,0,1.7-0.2,2.3-0.6S140.3,389.5,140.3,388.9z"/>
		<path class="st0" d="M157.5,390.5c-0.8,1.2-2.1,1.8-3.9,1.8c-1.3,0-2.3-0.4-3-1.1c-0.7-0.8-1-1.9-1-3.3v-7.9h1.3v7.7
			c0,2.3,0.9,3.5,2.8,3.5c1.9,0,3.2-0.8,3.7-2.4v-8.8h1.3V392h-1.3L157.5,390.5z"/>
		<path class="st0" d="M177.1,386c0,1.9-0.4,3.4-1.3,4.5c-0.8,1.1-2,1.7-3.4,1.7c-1.7,0-3-0.6-3.8-1.9l-0.1,1.7h-1.3v-17.3h1.3v6.9
			c0.9-1.3,2.1-2,3.8-2c1.4,0,2.6,0.5,3.4,1.6c0.8,1.1,1.3,2.6,1.3,4.6V386z M175.7,385.8c0-1.6-0.3-2.8-0.9-3.7s-1.5-1.3-2.6-1.3
			c-0.9,0-1.6,0.2-2.2,0.6s-1.1,1-1.4,1.9v5.5c0.7,1.5,1.9,2.3,3.6,2.3c1.1,0,2-0.4,2.6-1.3C175.4,388.9,175.7,387.6,175.7,385.8z"
			/>
		<path class="st0" d="M186.5,379.8v13.6c0,1.1-0.3,2-0.8,2.6s-1.3,0.9-2.4,0.9c-0.4,0-0.8-0.1-1.2-0.2l0-1.1c0.3,0.1,0.7,0.1,1,0.1
			c1.3,0,2-0.8,2-2.3v-13.6H186.5z M185.8,375.4c0.3,0,0.5,0.1,0.7,0.3s0.2,0.4,0.2,0.6s-0.1,0.5-0.2,0.6c-0.2,0.2-0.4,0.3-0.7,0.3
			c-0.3,0-0.5-0.1-0.7-0.3c-0.2-0.2-0.2-0.4-0.2-0.6s0.1-0.5,0.2-0.6C185.3,375.5,185.5,375.4,185.8,375.4z"/>
		<path class="st0" d="M200,392.2c-1,0-2-0.3-2.8-0.8c-0.8-0.5-1.5-1.2-1.9-2.1c-0.5-0.9-0.7-1.9-0.7-3.1v-0.5
			c0-1.2,0.2-2.2,0.7-3.2c0.5-0.9,1.1-1.7,1.9-2.2s1.7-0.8,2.6-0.8c1.5,0,2.6,0.5,3.5,1.5c0.9,1,1.3,2.4,1.3,4.1v0.8h-8.7v0.3
			c0,1.4,0.4,2.5,1.2,3.4c0.8,0.9,1.8,1.4,3,1.4c0.7,0,1.4-0.1,1.9-0.4c0.6-0.3,1.1-0.7,1.5-1.3l0.8,0.6
			C203.3,391.5,201.9,392.2,200,392.2z M199.7,380.8c-1,0-1.9,0.4-2.6,1.1c-0.7,0.7-1.1,1.7-1.3,3h7.3v-0.1c0-1.2-0.4-2.1-1-2.9
			S200.7,380.8,199.7,380.8z"/>
		<path class="st0" d="M216.6,391.1c0.9,0,1.7-0.3,2.4-0.8c0.6-0.5,1-1.2,1-2h1.3c0,0.7-0.3,1.4-0.7,2s-1,1.1-1.7,1.4
			c-0.7,0.3-1.5,0.5-2.3,0.5c-1.6,0-2.9-0.6-3.8-1.7c-0.9-1.1-1.4-2.6-1.4-4.5v-0.4c0-1.2,0.2-2.3,0.6-3.2c0.4-0.9,1-1.6,1.8-2.1
			c0.8-0.5,1.7-0.8,2.7-0.8c1.3,0,2.4,0.4,3.3,1.2c0.9,0.8,1.3,1.8,1.4,3.1H220c-0.1-1-0.4-1.7-1-2.3c-0.6-0.6-1.4-0.9-2.4-0.9
			c-1.2,0-2.2,0.4-2.8,1.3c-0.7,0.9-1,2.1-1,3.7v0.4c0,1.5,0.3,2.8,1,3.6C214.5,390.7,215.4,391.1,216.6,391.1z"/>
		<path class="st0" d="M231.1,376.7v3.1h2.5v1.1h-2.5v8.1c0,0.7,0.1,1.2,0.4,1.5c0.2,0.3,0.6,0.5,1.2,0.5c0.2,0,0.6,0,1.1-0.1
			l0.1,1.1c-0.4,0.1-0.8,0.2-1.4,0.2c-0.9,0-1.6-0.3-2-0.8s-0.6-1.3-0.6-2.4v-8.1h-2.2v-1.1h2.2v-3.1H231.1z"/>
		<path class="st0" d="M241.3,376.3c0-0.3,0.1-0.5,0.2-0.6s0.4-0.3,0.7-0.3s0.5,0.1,0.7,0.3c0.2,0.2,0.3,0.4,0.3,0.6
			s-0.1,0.5-0.3,0.6c-0.2,0.2-0.4,0.3-0.7,0.3s-0.5-0.1-0.7-0.3C241.4,376.8,241.3,376.6,241.3,376.3z M242.9,392h-1.3v-12.2h1.3
			V392z"/>
		<path class="st0" d="M255.3,390.1l3.7-10.3h1.4l-4.5,12.2h-1.1l-4.6-12.2h1.4L255.3,390.1z"/>
		<path class="st0" d="M272.1,392.2c-1,0-2-0.3-2.8-0.8c-0.8-0.5-1.5-1.2-1.9-2.1c-0.5-0.9-0.7-1.9-0.7-3.1v-0.5
			c0-1.2,0.2-2.2,0.7-3.2c0.5-0.9,1.1-1.7,1.9-2.2s1.7-0.8,2.6-0.8c1.5,0,2.6,0.5,3.5,1.5c0.9,1,1.3,2.4,1.3,4.1v0.8H268v0.3
			c0,1.4,0.4,2.5,1.2,3.4c0.8,0.9,1.8,1.4,3,1.4c0.7,0,1.4-0.1,1.9-0.4c0.6-0.3,1.1-0.7,1.5-1.3l0.8,0.6
			C275.4,391.5,274,392.2,272.1,392.2z M271.9,380.8c-1,0-1.9,0.4-2.6,1.1c-0.7,0.7-1.1,1.7-1.3,3h7.3v-0.1c0-1.2-0.4-2.1-1-2.9
			S272.9,380.8,271.9,380.8z"/>
	</g>
	<g class="st2">
		<path class="st0" d="M285.2,373.3h3.7v22.2h-3.7v-1.1h2.4v-19.9h-2.4V373.3z"/>
	</g>
	<rect x="242" y="336.3" class="st1" width="320.5" height="20.6"/>
	<g class="st2">
		<path class="st0" d="M247.5,335.9h-2.4v19.9h2.4v1.1h-3.7v-22.2h3.7V335.9z"/>
	</g>
	<g class="st2">
	</g>
	<g class="st2">
		<path class="st0" d="M259.2,338.2v3.1h2.5v1.1h-2.5v8.1c0,0.7,0.1,1.2,0.4,1.5c0.2,0.3,0.6,0.5,1.2,0.5c0.2,0,0.6,0,1.1-0.1
			l0.1,1.1c-0.4,0.1-0.8,0.2-1.4,0.2c-0.9,0-1.6-0.3-2-0.8s-0.6-1.3-0.6-2.4v-8.1h-2.2v-1.1h2.2v-3.1H259.2z"/>
		<path class="st0" d="M264.5,337.8c0-0.3,0.1-0.5,0.2-0.6s0.4-0.3,0.7-0.3s0.5,0.1,0.7,0.3c0.2,0.2,0.3,0.4,0.3,0.6
			s-0.1,0.5-0.3,0.6c-0.2,0.2-0.4,0.3-0.7,0.3s-0.5-0.1-0.7-0.3C264.6,338.3,264.5,338.1,264.5,337.8z M266.1,353.5h-1.3v-12.2h1.3
			V353.5z"/>
		<path class="st0" d="M270.9,341.3l0,2c0.4-0.7,1-1.3,1.7-1.7c0.7-0.4,1.4-0.5,2.2-0.5c1.9,0,3.1,0.8,3.6,2.4
			c0.4-0.8,1-1.3,1.7-1.7s1.5-0.6,2.4-0.6c2.6,0,3.9,1.4,4,4.3v8.1h-1.3v-8c0-1.1-0.2-1.9-0.7-2.4c-0.5-0.5-1.2-0.8-2.3-0.8
			c-1,0-1.8,0.3-2.4,0.9s-1,1.4-1.1,2.2v8h-1.3v-8.1c0-1-0.3-1.8-0.7-2.3c-0.5-0.5-1.2-0.8-2.2-0.8c-0.8,0-1.6,0.2-2.2,0.7
			c-0.6,0.5-1.1,1.2-1.3,2.2v8.3h-1.3v-12.2H270.9z"/>
		<path class="st0" d="M294.8,353.7c-1,0-2-0.3-2.8-0.8c-0.8-0.5-1.5-1.2-1.9-2.1c-0.5-0.9-0.7-1.9-0.7-3.1v-0.5
			c0-1.2,0.2-2.2,0.7-3.2c0.5-0.9,1.1-1.7,1.9-2.2s1.7-0.8,2.6-0.8c1.5,0,2.6,0.5,3.5,1.5c0.9,1,1.3,2.4,1.3,4.1v0.8h-8.7v0.3
			c0,1.4,0.4,2.5,1.2,3.4c0.8,0.9,1.8,1.4,3,1.4c0.7,0,1.4-0.1,1.9-0.4c0.6-0.3,1.1-0.7,1.5-1.3l0.8,0.6
			C298.1,353,296.7,353.7,294.8,353.7z M294.5,342.2c-1,0-1.9,0.4-2.6,1.1c-0.7,0.7-1.1,1.7-1.3,3h7.3v-0.1c0-1.2-0.4-2.1-1-2.9
			S295.6,342.2,294.5,342.2z"/>
	</g>
	<g class="st2">
	</g>
	<g class="st2">
		<path class="st0" d="M317.5,353.5c-0.1-0.4-0.2-0.9-0.3-1.7c-0.5,0.6-1.1,1.1-1.8,1.4c-0.7,0.3-1.5,0.5-2.3,0.5
			c-1.2,0-2.1-0.3-2.8-1c-0.7-0.7-1.1-1.5-1.1-2.5c0-1.2,0.5-2.1,1.5-2.8c1-0.7,2.4-1,4.1-1h2.4V345c0-0.9-0.3-1.6-0.8-2
			c-0.5-0.5-1.3-0.7-2.3-0.7c-0.9,0-1.7,0.2-2.3,0.7c-0.6,0.5-0.9,1.1-0.9,1.7l-1.3,0c0-1,0.4-1.8,1.3-2.5c0.9-0.7,2-1.1,3.3-1.1
			c1.4,0,2.4,0.3,3.2,1c0.8,0.7,1.2,1.6,1.2,2.8v5.8c0,1.2,0.1,2.1,0.4,2.6v0.1H317.5z M313.3,352.5c0.9,0,1.7-0.2,2.4-0.7
			c0.7-0.4,1.2-1,1.5-1.7v-2.7h-2.4c-1.3,0-2.4,0.3-3.1,0.7s-1.1,1.1-1.1,2c0,0.7,0.3,1.2,0.8,1.7
			C311.8,352.3,312.5,352.5,313.3,352.5z"/>
		<path class="st0" d="M329.5,350.4c0-0.7-0.3-1.2-0.8-1.6c-0.5-0.4-1.3-0.7-2.4-0.9s-1.9-0.5-2.5-0.8c-0.6-0.3-1-0.7-1.3-1.1
			c-0.3-0.4-0.4-0.9-0.4-1.5c0-1,0.4-1.8,1.2-2.4s1.8-0.9,3.1-0.9c1.4,0,2.4,0.3,3.3,1c0.8,0.7,1.2,1.5,1.2,2.6h-1.3
			c0-0.7-0.3-1.3-0.9-1.8c-0.6-0.5-1.3-0.7-2.3-0.7c-0.9,0-1.6,0.2-2.1,0.6c-0.5,0.4-0.8,0.9-0.8,1.5c0,0.6,0.2,1.1,0.7,1.4
			c0.4,0.3,1.3,0.6,2.4,0.9c1.2,0.3,2.1,0.6,2.7,0.9c0.6,0.3,1,0.7,1.3,1.1s0.4,1,0.4,1.6c0,1-0.4,1.8-1.2,2.5
			c-0.8,0.6-1.9,0.9-3.2,0.9c-1.4,0-2.6-0.3-3.4-1c-0.9-0.7-1.3-1.6-1.3-2.6h1.3c0.1,0.8,0.4,1.4,1,1.8c0.6,0.4,1.4,0.7,2.4,0.7
			c0.9,0,1.7-0.2,2.3-0.6S329.5,351,329.5,350.4z"/>
	</g>
	<g class="st2">
	</g>
	<g class="st2">
		<path class="st0" d="M349.4,353.5c-0.1-0.4-0.2-0.9-0.3-1.7c-0.5,0.6-1.1,1.1-1.8,1.4c-0.7,0.3-1.5,0.5-2.3,0.5
			c-1.2,0-2.1-0.3-2.8-1c-0.7-0.7-1.1-1.5-1.1-2.5c0-1.2,0.5-2.1,1.5-2.8c1-0.7,2.4-1,4.1-1h2.4V345c0-0.9-0.3-1.6-0.8-2
			s-1.3-0.7-2.3-0.7c-0.9,0-1.7,0.2-2.3,0.7c-0.6,0.5-0.9,1.1-0.9,1.7l-1.3,0c0-1,0.4-1.8,1.3-2.5c0.9-0.7,2-1.1,3.3-1.1
			c1.4,0,2.4,0.3,3.2,1c0.8,0.7,1.2,1.6,1.2,2.8v5.8c0,1.2,0.1,2.1,0.4,2.6v0.1H349.4z M345.2,352.5c0.9,0,1.7-0.2,2.4-0.7
			c0.7-0.4,1.2-1,1.5-1.7v-2.7h-2.4c-1.3,0-2.4,0.3-3.1,0.7c-0.8,0.5-1.1,1.1-1.1,2c0,0.7,0.3,1.2,0.8,1.7
			C343.7,352.3,344.4,352.5,345.2,352.5z"/>
	</g>
	<g class="st2">
	</g>
	<g class="st2">
		<path class="st0" d="M363.2,341.3l0,2c0.4-0.7,1-1.3,1.7-1.7c0.7-0.4,1.4-0.5,2.2-0.5c1.9,0,3.1,0.8,3.7,2.4
			c0.4-0.8,1-1.3,1.7-1.7c0.7-0.4,1.5-0.6,2.4-0.6c2.6,0,3.9,1.4,4,4.3v8.1h-1.3v-8c0-1.1-0.2-1.9-0.7-2.4c-0.5-0.5-1.2-0.8-2.3-0.8
			c-1,0-1.8,0.3-2.4,0.9c-0.7,0.6-1,1.4-1.1,2.2v8h-1.3v-8.1c0-1-0.3-1.8-0.7-2.3c-0.5-0.5-1.2-0.8-2.2-0.8c-0.8,0-1.6,0.2-2.2,0.7
			c-0.6,0.5-1.1,1.2-1.3,2.2v8.3h-1.3v-12.2H363.2z"/>
		<path class="st0" d="M387,353.7c-1,0-2-0.3-2.8-0.8c-0.8-0.5-1.5-1.2-1.9-2.1c-0.5-0.9-0.7-1.9-0.7-3.1v-0.5
			c0-1.2,0.2-2.2,0.7-3.2s1.1-1.7,1.9-2.2s1.7-0.8,2.6-0.8c1.5,0,2.6,0.5,3.5,1.5c0.9,1,1.3,2.4,1.3,4.1v0.8h-8.7v0.3
			c0,1.4,0.4,2.5,1.2,3.4s1.8,1.4,3,1.4c0.7,0,1.4-0.1,1.9-0.4c0.6-0.3,1.1-0.7,1.5-1.3l0.8,0.6C390.4,353,388.9,353.7,387,353.7z
			 M386.8,342.2c-1,0-1.9,0.4-2.6,1.1c-0.7,0.7-1.1,1.7-1.3,3h7.3v-0.1c0-1.2-0.4-2.1-1-2.9S387.8,342.2,386.8,342.2z"/>
		<path class="st0" d="M401.9,353.5c-0.1-0.4-0.2-0.9-0.3-1.7c-0.5,0.6-1.1,1.1-1.8,1.4c-0.7,0.3-1.5,0.5-2.3,0.5
			c-1.2,0-2.1-0.3-2.8-1c-0.7-0.7-1.1-1.5-1.1-2.5c0-1.2,0.5-2.1,1.5-2.8c1-0.7,2.4-1,4.1-1h2.4V345c0-0.9-0.3-1.6-0.8-2
			c-0.5-0.5-1.3-0.7-2.3-0.7c-0.9,0-1.7,0.2-2.3,0.7c-0.6,0.5-0.9,1.1-0.9,1.7l-1.3,0c0-1,0.4-1.8,1.3-2.5c0.9-0.7,2-1.1,3.3-1.1
			c1.4,0,2.4,0.3,3.2,1s1.2,1.6,1.2,2.8v5.8c0,1.2,0.1,2.1,0.4,2.6v0.1H401.9z M397.7,352.5c0.9,0,1.7-0.2,2.4-0.7
			c0.7-0.4,1.2-1,1.5-1.7v-2.7h-2.4c-1.3,0-2.4,0.3-3.1,0.7c-0.8,0.5-1.1,1.1-1.1,2c0,0.7,0.3,1.2,0.8,1.7
			C396.2,352.3,396.9,352.5,397.7,352.5z"/>
		<path class="st0" d="M413.8,350.4c0-0.7-0.3-1.2-0.8-1.6c-0.5-0.4-1.3-0.7-2.4-0.9s-1.9-0.5-2.5-0.8c-0.6-0.3-1-0.7-1.3-1.1
			c-0.3-0.4-0.4-0.9-0.4-1.5c0-1,0.4-1.8,1.2-2.4c0.8-0.6,1.8-0.9,3.1-0.9c1.4,0,2.4,0.3,3.3,1c0.8,0.7,1.2,1.5,1.2,2.6h-1.3
			c0-0.7-0.3-1.3-0.9-1.8c-0.6-0.5-1.3-0.7-2.3-0.7c-0.9,0-1.6,0.2-2.1,0.6c-0.5,0.4-0.8,0.9-0.8,1.5c0,0.6,0.2,1.1,0.7,1.4
			c0.4,0.3,1.3,0.6,2.4,0.9c1.2,0.3,2.1,0.6,2.7,0.9s1,0.7,1.3,1.1c0.3,0.4,0.4,1,0.4,1.6c0,1-0.4,1.8-1.2,2.5s-1.9,0.9-3.2,0.9
			c-1.4,0-2.6-0.3-3.4-1c-0.9-0.7-1.3-1.6-1.3-2.6h1.3c0.1,0.8,0.4,1.4,1,1.8c0.6,0.4,1.4,0.7,2.4,0.7c0.9,0,1.7-0.2,2.3-0.6
			C413.5,351.5,413.8,351,413.8,350.4z"/>
		<path class="st0" d="M426,351.9c-0.8,1.2-2.1,1.8-3.9,1.8c-1.3,0-2.3-0.4-3-1.1c-0.7-0.8-1-1.9-1-3.3v-7.9h1.3v7.7
			c0,2.3,0.9,3.5,2.8,3.5c1.9,0,3.2-0.8,3.7-2.4v-8.8h1.3v12.2H426L426,351.9z"/>
		<path class="st0" d="M436.4,342.5c-0.3-0.1-0.6-0.1-0.9-0.1c-0.8,0-1.5,0.2-2.1,0.7s-1,1.1-1.2,2v8.3h-1.3v-12.2h1.3l0,1.9
			c0.7-1.4,1.9-2.2,3.4-2.2c0.4,0,0.7,0,0.9,0.1L436.4,342.5z"/>
		<path class="st0" d="M438.5,337.8c0-0.3,0.1-0.5,0.2-0.6c0.2-0.2,0.4-0.3,0.7-0.3c0.3,0,0.5,0.1,0.7,0.3c0.2,0.2,0.3,0.4,0.3,0.6
			s-0.1,0.5-0.3,0.6c-0.2,0.2-0.4,0.3-0.7,0.3c-0.3,0-0.5-0.1-0.7-0.3C438.6,338.3,438.5,338.1,438.5,337.8z M440.1,353.5h-1.3
			v-12.2h1.3V353.5z"/>
		<path class="st0" d="M445,341.3l0,2.1c0.5-0.7,1-1.3,1.7-1.7c0.7-0.4,1.4-0.6,2.3-0.6c1.3,0,2.3,0.4,2.9,1.1c0.6,0.7,1,1.8,1,3.3
			v8h-1.3v-8c0-1.1-0.2-1.9-0.7-2.4c-0.5-0.5-1.2-0.8-2.2-0.8c-0.8,0-1.6,0.3-2.2,0.8c-0.6,0.5-1.1,1.2-1.4,2.1v8.3h-1.3v-12.2H445z
			"/>
		<path class="st0" d="M455.8,347.3c0-1.9,0.4-3.4,1.3-4.5c0.8-1.1,2-1.7,3.4-1.7c1.7,0,2.9,0.7,3.8,2l0.1-1.8h1.3v11.9
			c0,1.6-0.4,2.8-1.3,3.7c-0.9,0.9-2.1,1.4-3.6,1.4c-0.8,0-1.7-0.2-2.4-0.6s-1.4-0.9-1.8-1.5l0.8-0.8c1,1.2,2.1,1.8,3.4,1.8
			c1.1,0,2-0.3,2.6-1c0.6-0.7,1-1.6,1-2.8v-1.5c-0.9,1.2-2.1,1.8-3.8,1.8c-1.4,0-2.5-0.6-3.4-1.7s-1.3-2.6-1.3-4.5V347.3z
			 M457.2,347.5c0,1.5,0.3,2.8,0.9,3.7c0.6,0.9,1.5,1.3,2.6,1.3c1.7,0,2.8-0.7,3.5-2.2v-5.6c-0.3-0.8-0.8-1.4-1.4-1.8
			c-0.6-0.4-1.3-0.6-2.1-0.6c-1.1,0-2,0.4-2.6,1.3C457.5,344.5,457.2,345.8,457.2,347.5z"/>
	</g>
	<g class="st2">
	</g>
	<g class="st2">
		<path class="st0" d="M484.2,350.4c0-0.7-0.3-1.2-0.8-1.6c-0.5-0.4-1.3-0.7-2.4-0.9s-1.9-0.5-2.5-0.8c-0.6-0.3-1-0.7-1.3-1.1
			c-0.3-0.4-0.4-0.9-0.4-1.5c0-1,0.4-1.8,1.2-2.4c0.8-0.6,1.8-0.9,3.1-0.9c1.4,0,2.4,0.3,3.3,1c0.8,0.7,1.2,1.5,1.2,2.6h-1.3
			c0-0.7-0.3-1.3-0.9-1.8c-0.6-0.5-1.3-0.7-2.3-0.7c-0.9,0-1.6,0.2-2.1,0.6c-0.5,0.4-0.8,0.9-0.8,1.5c0,0.6,0.2,1.1,0.7,1.4
			c0.4,0.3,1.3,0.6,2.4,0.9c1.2,0.3,2.1,0.6,2.7,0.9s1,0.7,1.3,1.1c0.3,0.4,0.4,1,0.4,1.6c0,1-0.4,1.8-1.2,2.5s-1.9,0.9-3.2,0.9
			c-1.4,0-2.6-0.3-3.4-1c-0.9-0.7-1.3-1.6-1.3-2.6h1.3c0.1,0.8,0.4,1.4,1,1.8c0.6,0.4,1.4,0.7,2.4,0.7c0.9,0,1.7-0.2,2.3-0.6
			C484,351.5,484.2,351,484.2,350.4z"/>
		<path class="st0" d="M492.5,351.5l3.5-10.2h1.4l-5.2,14.2l-0.3,0.6c-0.7,1.5-1.7,2.2-3.1,2.2c-0.3,0-0.7-0.1-1-0.2l0-1.1l0.7,0.1
			c0.7,0,1.2-0.2,1.6-0.5c0.4-0.3,0.8-0.9,1-1.7l0.6-1.6l-4.6-12h1.5L492.5,351.5z"/>
		<path class="st0" d="M506.8,350.4c0-0.7-0.3-1.2-0.8-1.6c-0.5-0.4-1.3-0.7-2.4-0.9s-1.9-0.5-2.5-0.8c-0.6-0.3-1-0.7-1.3-1.1
			c-0.3-0.4-0.4-0.9-0.4-1.5c0-1,0.4-1.8,1.2-2.4c0.8-0.6,1.8-0.9,3.1-0.9c1.4,0,2.4,0.3,3.3,1c0.8,0.7,1.2,1.5,1.2,2.6h-1.3
			c0-0.7-0.3-1.3-0.9-1.8c-0.6-0.5-1.3-0.7-2.3-0.7c-0.9,0-1.6,0.2-2.1,0.6c-0.5,0.4-0.8,0.9-0.8,1.5c0,0.6,0.2,1.1,0.7,1.4
			c0.4,0.3,1.3,0.6,2.4,0.9c1.2,0.3,2.1,0.6,2.7,0.9s1,0.7,1.3,1.1c0.3,0.4,0.4,1,0.4,1.6c0,1-0.4,1.8-1.2,2.5s-1.9,0.9-3.2,0.9
			c-1.4,0-2.6-0.3-3.4-1c-0.9-0.7-1.3-1.6-1.3-2.6h1.3c0.1,0.8,0.4,1.4,1,1.8c0.6,0.4,1.4,0.7,2.4,0.7c0.9,0,1.7-0.2,2.3-0.6
			C506.5,351.5,506.8,351,506.8,350.4z"/>
		<path class="st0" d="M513.3,338.2v3.1h2.5v1.1h-2.5v8.1c0,0.7,0.1,1.2,0.4,1.5c0.2,0.3,0.6,0.5,1.2,0.5c0.2,0,0.6,0,1.1-0.1
			l0.1,1.1c-0.4,0.1-0.8,0.2-1.4,0.2c-0.9,0-1.6-0.3-2-0.8c-0.4-0.5-0.6-1.3-0.6-2.4v-8.1h-2.2v-1.1h2.2v-3.1H513.3z"/>
		<path class="st0" d="M523.3,353.7c-1,0-2-0.3-2.8-0.8c-0.8-0.5-1.5-1.2-1.9-2.1c-0.5-0.9-0.7-1.9-0.7-3.1v-0.5
			c0-1.2,0.2-2.2,0.7-3.2s1.1-1.7,1.9-2.2s1.7-0.8,2.6-0.8c1.5,0,2.6,0.5,3.5,1.5c0.9,1,1.3,2.4,1.3,4.1v0.8h-8.7v0.3
			c0,1.4,0.4,2.5,1.2,3.4s1.8,1.4,3,1.4c0.7,0,1.4-0.1,1.9-0.4c0.6-0.3,1.1-0.7,1.5-1.3l0.8,0.6C526.6,353,525.2,353.7,523.3,353.7z
			 M523,342.2c-1,0-1.9,0.4-2.6,1.1c-0.7,0.7-1.1,1.7-1.3,3h7.3v-0.1c0-1.2-0.4-2.1-1-2.9S524,342.2,523,342.2z"/>
		<path class="st0" d="M531.7,341.3l0,2c0.4-0.7,1-1.3,1.7-1.7c0.7-0.4,1.4-0.5,2.2-0.5c1.9,0,3.1,0.8,3.6,2.4
			c0.4-0.8,1-1.3,1.7-1.7c0.7-0.4,1.5-0.6,2.4-0.6c2.6,0,3.9,1.4,4,4.3v8.1h-1.3v-8c0-1.1-0.2-1.9-0.7-2.4c-0.5-0.5-1.2-0.8-2.3-0.8
			c-1,0-1.8,0.3-2.4,0.9c-0.7,0.6-1,1.4-1.1,2.2v8h-1.3v-8.1c0-1-0.3-1.8-0.7-2.3c-0.5-0.5-1.2-0.8-2.2-0.8c-0.8,0-1.6,0.2-2.2,0.7
			c-0.6,0.5-1.1,1.2-1.3,2.2v8.3h-1.3v-12.2H531.7z"/>
	</g>
	<g class="st2">
	</g>
	<g class="st2">
		<path class="st0" d="M557,334.8h3.7V357H557v-1.1h2.4v-19.9H557V334.8z"/>
	</g>
	<rect x="120.8" y="402" class="st1" width="169.9" height="20.6"/>
	<g class="st2">
		<path class="st0" d="M126.3,401.7H124v19.9h2.4v1.1h-3.7v-22.2h3.7V401.7z"/>
		<path class="st0" d="M144.8,413.3c0,1.9-0.4,3.4-1.3,4.5c-0.8,1.1-2,1.7-3.4,1.7c-1.7,0-2.9-0.6-3.8-1.8v6.2H135v-16.8h1.2
			l0.1,1.7c0.9-1.3,2.1-1.9,3.8-1.9c1.5,0,2.6,0.5,3.4,1.7c0.8,1.1,1.2,2.6,1.2,4.6V413.3z M143.5,413c0-1.6-0.3-2.8-1-3.7
			s-1.5-1.3-2.7-1.3c-0.8,0-1.5,0.2-2.1,0.6c-0.6,0.4-1,1-1.4,1.7v5.8c0.3,0.7,0.8,1.2,1.4,1.6s1.3,0.5,2.1,0.5c1.1,0,2-0.5,2.6-1.4
			C143.1,416.1,143.5,414.8,143.5,413z"/>
		<path class="st0" d="M159.5,419.5c-1,0-2-0.3-2.8-0.8c-0.8-0.5-1.5-1.2-1.9-2.1c-0.5-0.9-0.7-1.9-0.7-3.1V413
			c0-1.2,0.2-2.2,0.7-3.2c0.5-0.9,1.1-1.7,1.9-2.2s1.7-0.8,2.6-0.8c1.5,0,2.6,0.5,3.5,1.5c0.9,1,1.3,2.4,1.3,4.1v0.8h-8.7v0.3
			c0,1.4,0.4,2.5,1.2,3.4c0.8,0.9,1.8,1.4,3,1.4c0.7,0,1.4-0.1,1.9-0.4c0.6-0.3,1.1-0.7,1.5-1.3l0.8,0.6
			C162.8,418.7,161.4,419.5,159.5,419.5z M159.2,408c-1,0-1.9,0.4-2.6,1.1c-0.7,0.7-1.1,1.7-1.3,3h7.3V412c0-1.2-0.4-2.1-1-2.9
			S160.3,408,159.2,408z"/>
		<path class="st0" d="M179.3,408.2c-0.3-0.1-0.6-0.1-0.9-0.1c-0.8,0-1.5,0.2-2.1,0.7c-0.6,0.5-1,1.1-1.2,2v8.3h-1.3v-12.2h1.3
			l0,1.9c0.7-1.4,1.9-2.2,3.4-2.2c0.4,0,0.7,0,0.9,0.1L179.3,408.2z"/>
		<path class="st0" d="M195.7,416.1c0-0.7-0.3-1.2-0.8-1.6c-0.5-0.4-1.3-0.7-2.4-0.9s-1.9-0.5-2.5-0.8c-0.6-0.3-1-0.7-1.3-1.1
			c-0.3-0.4-0.4-0.9-0.4-1.5c0-1,0.4-1.8,1.2-2.4s1.8-0.9,3.1-0.9c1.4,0,2.4,0.3,3.3,1c0.8,0.7,1.2,1.5,1.2,2.6h-1.3
			c0-0.7-0.3-1.3-0.9-1.8c-0.6-0.5-1.3-0.7-2.3-0.7c-0.9,0-1.6,0.2-2.1,0.6c-0.5,0.4-0.8,0.9-0.8,1.5c0,0.6,0.2,1.1,0.7,1.4
			c0.4,0.3,1.3,0.6,2.4,0.9c1.2,0.3,2.1,0.6,2.7,0.9c0.6,0.3,1,0.7,1.3,1.1s0.4,1,0.4,1.6c0,1-0.4,1.8-1.2,2.5
			c-0.8,0.6-1.9,0.9-3.2,0.9c-1.4,0-2.6-0.3-3.4-1c-0.9-0.7-1.3-1.6-1.3-2.6h1.3c0.1,0.8,0.4,1.4,1,1.8c0.6,0.4,1.4,0.7,2.4,0.7
			c0.9,0,1.7-0.2,2.3-0.6S195.7,416.8,195.7,416.1z"/>
		<path class="st0" d="M206.3,413c0-1.2,0.2-2.2,0.7-3.2c0.5-0.9,1.1-1.7,1.9-2.2c0.8-0.5,1.8-0.8,2.8-0.8c1.6,0,2.9,0.6,3.9,1.7
			c1,1.1,1.5,2.6,1.5,4.5v0.3c0,1.2-0.2,2.2-0.7,3.2c-0.5,0.9-1.1,1.7-1.9,2.2s-1.8,0.8-2.8,0.8c-1.6,0-2.9-0.6-3.9-1.7
			c-1-1.1-1.5-2.6-1.5-4.5V413z M207.6,413.4c0,1.5,0.4,2.6,1.1,3.6c0.8,0.9,1.7,1.4,3,1.4c1.2,0,2.2-0.5,2.9-1.4
			c0.8-0.9,1.1-2.2,1.1-3.7V413c0-0.9-0.2-1.8-0.5-2.5s-0.8-1.4-1.4-1.8s-1.3-0.6-2.1-0.6c-1.2,0-2.2,0.5-2.9,1.4s-1.1,2.2-1.1,3.7
			V413.4z"/>
		<path class="st0" d="M228.2,407.1l0,2.1c0.5-0.7,1-1.3,1.7-1.7c0.7-0.4,1.4-0.6,2.3-0.6c1.3,0,2.3,0.4,2.9,1.1s1,1.8,1,3.3v8h-1.3
			v-8c0-1.1-0.2-1.9-0.7-2.4c-0.5-0.5-1.2-0.8-2.2-0.8c-0.8,0-1.6,0.3-2.2,0.8c-0.6,0.5-1.1,1.2-1.4,2.1v8.3h-1.3v-12.2H228.2z"/>
		<path class="st0" d="M254.2,419.2c-0.1-0.4-0.2-0.9-0.3-1.7c-0.5,0.6-1.1,1.1-1.8,1.4c-0.7,0.3-1.5,0.5-2.3,0.5
			c-1.2,0-2.1-0.3-2.8-1c-0.7-0.7-1.1-1.5-1.1-2.5c0-1.2,0.5-2.1,1.5-2.8c1-0.7,2.4-1,4.1-1h2.4v-1.4c0-0.9-0.3-1.6-0.8-2
			c-0.5-0.5-1.3-0.7-2.3-0.7c-0.9,0-1.7,0.2-2.3,0.7c-0.6,0.5-0.9,1.1-0.9,1.7l-1.3,0c0-1,0.4-1.8,1.3-2.5c0.9-0.7,2-1.1,3.3-1.1
			c1.4,0,2.4,0.3,3.2,1c0.8,0.7,1.2,1.6,1.2,2.8v5.8c0,1.2,0.1,2.1,0.4,2.6v0.1H254.2z M250,418.3c0.9,0,1.7-0.2,2.4-0.7
			c0.7-0.4,1.2-1,1.5-1.7v-2.7h-2.4c-1.3,0-2.4,0.3-3.1,0.7s-1.1,1.1-1.1,2c0,0.7,0.3,1.2,0.8,1.7C248.5,418,249.2,418.3,250,418.3z
			"/>
		<path class="st0" d="M267.3,419.2H266V402h1.3V419.2z"/>
	</g>
	<g class="st2">
		<path class="st0" d="M285.2,400.5h3.7v22.2h-3.7v-1.1h2.4v-19.9h-2.4V400.5z"/>
	</g>
	<rect x="120.8" y="429.3" class="st1" width="169.9" height="20.6"/>
	<g class="st2">
		<path class="st0" d="M126.3,428.9H124v19.9h2.4v1.1h-3.7v-22.2h3.7V428.9z"/>
		<path class="st0" d="M133,430.8c0-0.3,0.1-0.5,0.2-0.6s0.4-0.3,0.7-0.3s0.5,0.1,0.7,0.3c0.2,0.2,0.3,0.4,0.3,0.6s-0.1,0.5-0.3,0.6
			c-0.2,0.2-0.4,0.3-0.7,0.3s-0.5-0.1-0.7-0.3C133,431.3,133,431.1,133,430.8z M134.5,446.5h-1.3v-12.2h1.3V446.5z"/>
		<path class="st0" d="M144.5,434.3l0,2.1c0.5-0.7,1-1.3,1.7-1.7c0.7-0.4,1.4-0.6,2.3-0.6c1.3,0,2.3,0.4,2.9,1.1s1,1.8,1,3.3v8H151
			v-8c0-1.1-0.2-1.9-0.7-2.4c-0.5-0.5-1.2-0.8-2.2-0.8c-0.8,0-1.6,0.3-2.2,0.8c-0.6,0.5-1.1,1.2-1.4,2.1v8.3h-1.3v-12.2H144.5z"/>
		<path class="st0" d="M160.3,440.3c0-1.9,0.4-3.4,1.3-4.5c0.8-1.1,2-1.7,3.4-1.7c1.6,0,2.9,0.6,3.8,1.9v-6.8h1.3v17.3h-1.3
			l-0.1-1.6c-0.9,1.2-2.1,1.8-3.8,1.8c-1.4,0-2.5-0.6-3.4-1.7c-0.9-1.1-1.3-2.6-1.3-4.6V440.3z M161.6,440.5c0,1.5,0.3,2.8,0.9,3.7
			s1.5,1.3,2.6,1.3c1.7,0,2.8-0.7,3.5-2.2v-5.7c-0.7-1.6-1.9-2.4-3.5-2.4c-1.1,0-2,0.4-2.6,1.3C161.9,437.5,161.6,438.8,161.6,440.5
			z"/>
		<path class="st0" d="M178.5,430.8c0-0.3,0.1-0.5,0.2-0.6s0.4-0.3,0.7-0.3s0.5,0.1,0.7,0.3c0.2,0.2,0.3,0.4,0.3,0.6
			s-0.1,0.5-0.3,0.6c-0.2,0.2-0.4,0.3-0.7,0.3s-0.5-0.1-0.7-0.3C178.6,431.3,178.5,431.1,178.5,430.8z M180.1,446.5h-1.3v-12.2h1.3
			V446.5z"/>
		<path class="st0" d="M192.5,444.6l3.7-10.3h1.4l-4.5,12.2H192l-4.6-12.2h1.4L192.5,444.6z"/>
		<path class="st0" d="M204.7,430.8c0-0.3,0.1-0.5,0.2-0.6s0.4-0.3,0.7-0.3s0.5,0.1,0.7,0.3c0.2,0.2,0.3,0.4,0.3,0.6
			s-0.1,0.5-0.3,0.6c-0.2,0.2-0.4,0.3-0.7,0.3s-0.5-0.1-0.7-0.3C204.8,431.3,204.7,431.1,204.7,430.8z M206.3,446.5h-1.3v-12.2h1.3
			V446.5z"/>
		<path class="st0" d="M214.4,440.3c0-1.9,0.4-3.4,1.3-4.5c0.8-1.1,2-1.7,3.4-1.7c1.6,0,2.9,0.6,3.8,1.9v-6.8h1.3v17.3h-1.3
			l-0.1-1.6c-0.9,1.2-2.1,1.8-3.8,1.8c-1.4,0-2.5-0.6-3.4-1.7c-0.9-1.1-1.3-2.6-1.3-4.6V440.3z M215.7,440.5c0,1.5,0.3,2.8,0.9,3.7
			s1.5,1.3,2.6,1.3c1.7,0,2.8-0.7,3.5-2.2v-5.7c-0.7-1.6-1.9-2.4-3.5-2.4c-1.1,0-2,0.4-2.6,1.3C216.1,437.5,215.7,438.8,215.7,440.5
			z"/>
		<path class="st0" d="M240.5,444.9c-0.8,1.2-2.1,1.8-3.9,1.8c-1.3,0-2.3-0.4-3-1.1c-0.7-0.8-1-1.9-1-3.3v-7.9h1.3v7.7
			c0,2.3,0.9,3.5,2.8,3.5c1.9,0,3.2-0.8,3.7-2.4v-8.8h1.3v12.2h-1.3L240.5,444.9z"/>
		<path class="st0" d="M258,446.5c-0.1-0.4-0.2-0.9-0.3-1.7c-0.5,0.6-1.1,1.1-1.8,1.4c-0.7,0.3-1.5,0.5-2.3,0.5
			c-1.2,0-2.1-0.3-2.8-1c-0.7-0.7-1.1-1.5-1.1-2.5c0-1.2,0.5-2.1,1.5-2.8c1-0.7,2.4-1,4.1-1h2.4V438c0-0.9-0.3-1.6-0.8-2
			c-0.5-0.5-1.3-0.7-2.3-0.7c-0.9,0-1.7,0.2-2.3,0.7c-0.6,0.5-0.9,1.1-0.9,1.7l-1.3,0c0-1,0.4-1.8,1.3-2.5c0.9-0.7,2-1.1,3.3-1.1
			c1.4,0,2.4,0.3,3.2,1c0.8,0.7,1.2,1.6,1.2,2.8v5.8c0,1.2,0.1,2.1,0.4,2.6v0.1H258z M253.8,445.5c0.9,0,1.7-0.2,2.4-0.7
			c0.7-0.4,1.2-1,1.5-1.7v-2.7h-2.4c-1.3,0-2.4,0.3-3.1,0.7s-1.1,1.1-1.1,2c0,0.7,0.3,1.2,0.8,1.7
			C252.3,445.3,253,445.5,253.8,445.5z"/>
		<path class="st0" d="M269.1,446.5h-1.3v-17.3h1.3V446.5z"/>
	</g>
	<g class="st2">
		<path class="st0" d="M285.2,427.8h3.7V450h-3.7v-1.1h2.4v-19.9h-2.4V427.8z"/>
	</g>
	<rect x="120.8" y="456.5" class="st1" width="169.9" height="20.6"/>
	<g class="st2">
		<path class="st0" d="M126.3,456.2H124v19.9h2.4v1.1h-3.7V455h3.7V456.2z"/>
		<path class="st0" d="M148.8,467.8c0,1.9-0.4,3.4-1.3,4.5c-0.8,1.1-2,1.7-3.4,1.7c-1.7,0-2.9-0.6-3.8-1.8v6.2H139v-16.8h1.2
			l0.1,1.7c0.9-1.3,2.1-1.9,3.8-1.9c1.5,0,2.6,0.5,3.4,1.7c0.8,1.1,1.2,2.6,1.2,4.6V467.8z M147.5,467.5c0-1.6-0.3-2.8-1-3.7
			s-1.5-1.3-2.7-1.3c-0.8,0-1.5,0.2-2.1,0.6c-0.6,0.4-1,1-1.4,1.7v5.8c0.3,0.7,0.8,1.2,1.4,1.6s1.3,0.5,2.1,0.5c1.1,0,2-0.5,2.6-1.4
			C147.1,470.5,147.5,469.2,147.5,467.5z"/>
		<path class="st0" d="M168.4,462.7c-0.3-0.1-0.6-0.1-0.9-0.1c-0.8,0-1.5,0.2-2.1,0.7c-0.6,0.5-1,1.1-1.2,2v8.3h-1.3v-12.2h1.3
			l0,1.9c0.7-1.4,1.9-2.2,3.4-2.2c0.4,0,0.7,0,0.9,0.1L168.4,462.7z"/>
		<path class="st0" d="M181.4,458.1c0-0.3,0.1-0.5,0.2-0.6s0.4-0.3,0.7-0.3s0.5,0.1,0.7,0.3c0.2,0.2,0.3,0.4,0.3,0.6
			s-0.1,0.5-0.3,0.6c-0.2,0.2-0.4,0.3-0.7,0.3s-0.5-0.1-0.7-0.3C181.5,458.5,181.4,458.3,181.4,458.1z M183,473.7h-1.3v-12.2h1.3
			V473.7z"/>
		<path class="st0" d="M201.4,471.9l3.7-10.3h1.4l-4.5,12.2h-1.1l-4.6-12.2h1.4L201.4,471.9z"/>
		<path class="st0" d="M227.2,473.7c-0.1-0.4-0.2-0.9-0.3-1.7c-0.5,0.6-1.1,1.1-1.8,1.4c-0.7,0.3-1.5,0.5-2.3,0.5
			c-1.2,0-2.1-0.3-2.8-1c-0.7-0.7-1.1-1.5-1.1-2.5c0-1.2,0.5-2.1,1.5-2.8c1-0.7,2.4-1,4.1-1h2.4v-1.4c0-0.9-0.3-1.6-0.8-2
			c-0.5-0.5-1.3-0.7-2.3-0.7c-0.9,0-1.7,0.2-2.3,0.7c-0.6,0.5-0.9,1.1-0.9,1.7l-1.3,0c0-1,0.4-1.8,1.3-2.5c0.9-0.7,2-1.1,3.3-1.1
			c1.4,0,2.4,0.3,3.2,1c0.8,0.7,1.2,1.6,1.2,2.8v5.8c0,1.2,0.1,2.1,0.4,2.6v0.1H227.2z M223,472.7c0.9,0,1.7-0.2,2.4-0.7
			c0.7-0.4,1.2-1,1.5-1.7v-2.7h-2.4c-1.3,0-2.4,0.3-3.1,0.7s-1.1,1.1-1.1,2c0,0.7,0.3,1.2,0.8,1.7
			C221.5,472.5,222.2,472.7,223,472.7z"/>
		<path class="st0" d="M244.9,458.5v3.1h2.5v1.1h-2.5v8.1c0,0.7,0.1,1.2,0.4,1.5c0.2,0.3,0.6,0.5,1.2,0.5c0.2,0,0.6,0,1.1-0.1
			l0.1,1.1c-0.4,0.1-0.8,0.2-1.4,0.2c-0.9,0-1.6-0.3-2-0.8s-0.6-1.3-0.6-2.4v-8.1h-2.2v-1.1h2.2v-3.1H244.9z"/>
		<path class="st0" d="M265.9,473.9c-1,0-2-0.3-2.8-0.8c-0.8-0.5-1.5-1.2-1.9-2.1c-0.5-0.9-0.7-1.9-0.7-3.1v-0.5
			c0-1.2,0.2-2.2,0.7-3.2c0.5-0.9,1.1-1.7,1.9-2.2s1.7-0.8,2.6-0.8c1.5,0,2.6,0.5,3.5,1.5c0.9,1,1.3,2.4,1.3,4.1v0.8h-8.7v0.3
			c0,1.4,0.4,2.5,1.2,3.4c0.8,0.9,1.8,1.4,3,1.4c0.7,0,1.4-0.1,1.9-0.4c0.6-0.3,1.1-0.7,1.5-1.3l0.8,0.6
			C269.3,473.2,267.8,473.9,265.9,473.9z M265.7,462.5c-1,0-1.9,0.4-2.6,1.1c-0.7,0.7-1.1,1.7-1.3,3h7.3v-0.1c0-1.2-0.4-2.1-1-2.9
			S266.7,462.5,265.7,462.5z"/>
	</g>
	<g class="st2">
		<path class="st0" d="M285.2,455h3.7v22.2h-3.7v-1.1h2.4v-19.9h-2.4V455z"/>
	</g>
</g>
</svg>
