<?xml version="1.0" encoding="utf-8"?>
<!-- Generator: Adobe Illustrator 24.0.0, SVG Export Plug-In . SVG Version: 6.00 Build 0)  -->
<svg version="1.1" xmlns="http://www.w3.org/2000/svg" xmlns:xlink="http://www.w3.org/1999/xlink" x="0px" y="0px"
	 viewBox="0 0 683.3 531.1" style="enable-background:new 0 0 683.3 531.1;" xml:space="preserve">
<style type="text/css">
	.st0{fill:none;}
	.st1{fill:#FFFFFF;}
	.st2{display:none;}
	.st3{display:inline;fill:#FFFFFF;}
	.st4{fill:none;stroke:#FFFFFF;stroke-linecap:square;stroke-miterlimit:10;}
</style>
<g id="TEXTS">
	<g>
		<rect x="228.7" class="st0" width="183.2" height="27"/>
		<path class="st1" d="M298,17.4c0-0.8-0.3-1.5-0.9-2c-0.6-0.5-1.7-1-3.3-1.4c-1.6-0.4-2.7-0.9-3.5-1.5c-1-0.7-1.6-1.7-1.6-2.9
			c0-1.2,0.5-2.1,1.4-2.9c1-0.7,2.2-1.1,3.7-1.1c1,0,1.9,0.2,2.7,0.6s1.4,0.9,1.9,1.6c0.4,0.7,0.7,1.5,0.7,2.3h-1.3
			c0-1-0.4-1.9-1.1-2.5c-0.7-0.6-1.7-1-2.9-1c-1.2,0-2.1,0.3-2.8,0.8s-1,1.2-1,2.1c0,0.8,0.3,1.4,0.9,1.9c0.6,0.5,1.6,0.9,3,1.3
			s2.4,0.8,3.1,1.2s1.2,0.9,1.6,1.4s0.5,1.2,0.5,2c0,1.2-0.5,2.2-1.4,2.9c-1,0.7-2.2,1.1-3.8,1.1c-1.1,0-2.1-0.2-3-0.6
			c-0.9-0.4-1.6-0.9-2.1-1.6s-0.7-1.5-0.7-2.4h1.3c0,1.1,0.4,1.9,1.2,2.6s1.9,0.9,3.2,0.9c1.2,0,2.2-0.3,2.9-0.8
			C297.7,19,298,18.3,298,17.4z"/>
		<path class="st1" d="M312.5,7h-5.3v14.2H306V7h-5.2V5.9h11.8V7z"/>
		<path class="st1" d="M323.3,16.9h-7l-1.6,4.3h-1.4l5.8-15.3h1.2l5.8,15.3h-1.3L323.3,16.9z M316.7,15.8h6.1l-3.1-8.3L316.7,15.8z"
			/>
		<path class="st1" d="M334.2,14.8h-4.5v6.4h-1.3V5.9h5c1.6,0,2.9,0.4,3.8,1.2c0.9,0.8,1.4,1.9,1.4,3.3c0,1-0.3,1.8-0.9,2.6
			c-0.6,0.8-1.3,1.3-2.3,1.6l3.8,6.5v0.1h-1.4L334.2,14.8z M329.7,13.7h4c1.1,0,2-0.3,2.6-0.9s1-1.4,1-2.4c0-1.1-0.3-1.9-1-2.5
			c-0.7-0.6-1.7-0.9-2.9-0.9h-3.7V13.7z"/>
		<path class="st1" d="M352.6,7h-5.3v14.2H346V7h-5.2V5.9h11.8V7z"/>
	</g>
	<g>
		<rect x="228.7" y="65.3" class="st0" width="183.2" height="52.9"/>
		<path class="st1" d="M293,80.3v6.2h-1.3V71.2h5.2c1.6,0,2.9,0.4,3.8,1.2c0.9,0.8,1.4,1.9,1.4,3.4c0,1.4-0.4,2.5-1.3,3.3
			c-0.9,0.8-2.2,1.2-3.9,1.2H293z M293,79.2h3.9c1.3,0,2.2-0.3,2.9-0.9s1-1.4,1-2.5c0-1.1-0.3-1.9-1-2.5c-0.7-0.6-1.6-1-2.8-1h-4
			V79.2z"/>
		<path class="st1" d="M310.8,80.1h-4.5v6.4H305V71.2h5c1.6,0,2.9,0.4,3.8,1.2c0.9,0.8,1.4,1.9,1.4,3.3c0,1-0.3,1.8-0.9,2.6
			c-0.6,0.8-1.3,1.3-2.3,1.6l3.8,6.5v0.1h-1.4L310.8,80.1z M306.3,79h4c1.1,0,2-0.3,2.6-0.9s1-1.4,1-2.4c0-1.1-0.3-1.9-1-2.5
			c-0.7-0.6-1.7-0.9-2.9-0.9h-3.7V79z"/>
		<path class="st1" d="M320.3,86.5H319V71.2h1.3V86.5z"/>
		<path class="st1" d="M335.9,86.5h-1.3l-8.8-13.1v13.1h-1.3V71.2h1.3l8.8,13.1V71.2h1.3V86.5z"/>
		<path class="st1" d="M350.2,72.3h-5.3v14.2h-1.3V72.3h-5.2v-1.1h11.8V72.3z"/>
		<path class="st1" d="M248.9,112.4h-1.3V97.1h1.3V112.4z"/>
		<path class="st1" d="M264.4,112.4h-1.3l-8.8-13.1v13.1H253V97.1h1.3l8.8,13.1V97.1h1.3V112.4z"/>
		<path class="st1" d="M277,108.6c0-0.8-0.3-1.5-0.9-2c-0.6-0.5-1.7-1-3.3-1.4c-1.6-0.4-2.7-0.9-3.5-1.5c-1-0.7-1.6-1.7-1.6-2.9
			c0-1.2,0.5-2.1,1.4-2.9c1-0.7,2.2-1.1,3.7-1.1c1,0,1.9,0.2,2.7,0.6s1.4,0.9,1.9,1.6c0.4,0.7,0.7,1.5,0.7,2.3h-1.3
			c0-1-0.4-1.9-1.1-2.5c-0.7-0.6-1.7-1-2.9-1c-1.2,0-2.1,0.3-2.8,0.8s-1,1.2-1,2.1c0,0.8,0.3,1.4,0.9,1.9c0.6,0.5,1.6,0.9,3,1.3
			s2.4,0.8,3.1,1.2s1.2,0.9,1.6,1.4s0.5,1.2,0.5,2c0,1.2-0.5,2.2-1.4,2.9c-1,0.7-2.2,1.1-3.8,1.1c-1.1,0-2.1-0.2-3-0.6
			c-0.9-0.4-1.6-0.9-2.1-1.6s-0.7-1.5-0.7-2.4h1.3c0,1.1,0.4,1.9,1.2,2.6s1.9,0.9,3.2,0.9c1.2,0,2.2-0.3,2.9-0.8
			C276.6,110.2,277,109.5,277,108.6z"/>
		<path class="st1" d="M291.5,98.2h-5.3v14.2h-1.3V98.2h-5.2v-1.1h11.8V98.2z"/>
		<path class="st1" d="M299.7,106h-4.5v6.4h-1.3V97.1h5c1.6,0,2.9,0.4,3.8,1.2c0.9,0.8,1.4,1.9,1.4,3.3c0,1-0.3,1.8-0.9,2.6
			c-0.6,0.8-1.3,1.3-2.3,1.6l3.8,6.5v0.1h-1.4L299.7,106z M295.2,104.9h4c1.1,0,2-0.3,2.6-0.9s1-1.4,1-2.4c0-1.1-0.3-1.9-1-2.5
			c-0.7-0.6-1.7-0.9-2.9-0.9h-3.7V104.9z"/>
		<path class="st1" d="M318.2,97.1v10.5c0,1-0.2,1.9-0.7,2.7c-0.4,0.8-1.1,1.4-1.9,1.8c-0.8,0.4-1.8,0.6-2.8,0.6
			c-1.6,0-2.9-0.4-3.9-1.3s-1.5-2.1-1.5-3.7V97.1h1.3v10.4c0,1.3,0.4,2.3,1.1,3c0.7,0.7,1.7,1.1,3,1.1c1.3,0,2.3-0.4,3-1.1
			c0.7-0.7,1.1-1.7,1.1-3V97.1H318.2z"/>
		<path class="st1" d="M332.7,107.6c-0.2,1.6-0.8,2.8-1.7,3.7c-1,0.9-2.3,1.3-3.9,1.3c-1.1,0-2.1-0.3-3-0.9c-0.9-0.6-1.5-1.4-2-2.4
			c-0.5-1-0.7-2.2-0.7-3.6v-2c0-1.4,0.2-2.6,0.7-3.6c0.5-1.1,1.2-1.9,2.1-2.4c0.9-0.6,1.9-0.9,3.1-0.9c1.6,0,2.9,0.4,3.9,1.3
			c1,0.9,1.5,2.1,1.7,3.7h-1.3c-0.3-2.6-1.7-3.9-4.2-3.9c-1.4,0-2.5,0.5-3.3,1.6s-1.2,2.5-1.2,4.3v1.9c0,1.8,0.4,3.2,1.2,4.2
			s1.9,1.6,3.3,1.6c1.4,0,2.4-0.3,3.1-1c0.7-0.6,1.1-1.6,1.3-2.9H332.7z"/>
		<path class="st1" d="M346.2,98.2H341v14.2h-1.3V98.2h-5.2v-1.1h11.8V98.2z"/>
		<path class="st1" d="M350.3,112.4H349V97.1h1.3V112.4z"/>
		<path class="st1" d="M365.8,105.6c0,1.4-0.2,2.6-0.7,3.7c-0.5,1.1-1.2,1.9-2.1,2.5c-0.9,0.6-2,0.9-3.1,0.9c-1.8,0-3.2-0.6-4.3-1.9
			c-1.1-1.3-1.7-3-1.7-5.2v-1.6c0-1.4,0.2-2.6,0.7-3.7c0.5-1.1,1.2-1.9,2.1-2.5c0.9-0.6,1.9-0.9,3.1-0.9c1.2,0,2.2,0.3,3.1,0.9
			c0.9,0.6,1.6,1.4,2.1,2.4s0.7,2.2,0.8,3.6V105.6z M364.5,103.9c0-1.8-0.4-3.3-1.3-4.3s-2-1.6-3.4-1.6c-1.4,0-2.6,0.5-3.4,1.6
			s-1.3,2.5-1.3,4.4v1.6c0,1.8,0.4,3.3,1.3,4.3c0.8,1.1,2,1.6,3.4,1.6c1.5,0,2.6-0.5,3.4-1.6c0.8-1,1.2-2.5,1.2-4.4V103.9z"/>
		<path class="st1" d="M380.4,112.4h-1.3l-8.8-13.1v13.1H369V97.1h1.3l8.8,13.1V97.1h1.3V112.4z"/>
		<path class="st1" d="M393,108.6c0-0.8-0.3-1.5-0.9-2c-0.6-0.5-1.7-1-3.3-1.4c-1.6-0.4-2.7-0.9-3.5-1.5c-1-0.7-1.6-1.7-1.6-2.9
			c0-1.2,0.5-2.1,1.4-2.9s2.2-1.1,3.7-1.1c1,0,1.9,0.2,2.7,0.6s1.4,0.9,1.9,1.6s0.7,1.5,0.7,2.3h-1.3c0-1-0.4-1.9-1.1-2.5
			c-0.7-0.6-1.7-1-2.9-1c-1.2,0-2.1,0.3-2.8,0.8c-0.7,0.5-1,1.2-1,2.1c0,0.8,0.3,1.4,0.9,1.9c0.6,0.5,1.6,0.9,3,1.3
			c1.4,0.4,2.4,0.8,3.1,1.2s1.2,0.9,1.6,1.4c0.4,0.6,0.5,1.2,0.5,2c0,1.2-0.5,2.2-1.4,2.9c-1,0.7-2.2,1.1-3.8,1.1
			c-1.1,0-2.1-0.2-3-0.6c-0.9-0.4-1.6-0.9-2.1-1.6s-0.7-1.5-0.7-2.4h1.3c0,1.1,0.4,1.9,1.2,2.6c0.8,0.6,1.9,0.9,3.2,0.9
			c1.2,0,2.2-0.3,2.9-0.8C392.7,110.2,393,109.5,393,108.6z"/>
	</g>
	<g>
		<rect x="228.7" y="156.8" class="st0" width="183.2" height="78.8"/>
		<path class="st1" d="M313.3,176.2c-0.4,0.6-1.2,1.1-2.1,1.5c-1,0.4-2,0.5-3.2,0.5c-1.2,0-2.3-0.3-3.2-0.9
			c-0.9-0.6-1.7-1.4-2.2-2.4s-0.8-2.3-0.8-3.6v-1.9c0-2.1,0.5-3.8,1.6-5c1.1-1.2,2.5-1.8,4.3-1.8c1.6,0,2.8,0.4,3.8,1.2
			c1,0.8,1.5,1.9,1.7,3.3H312c-0.2-1.1-0.6-2-1.4-2.6c-0.7-0.6-1.7-0.9-2.8-0.9c-1.4,0-2.6,0.5-3.4,1.5c-0.8,1-1.3,2.5-1.3,4.3v1.8
			c0,1.2,0.2,2.2,0.6,3.1s1,1.6,1.7,2.1c0.7,0.5,1.6,0.7,2.6,0.7c1.1,0,2.1-0.2,2.9-0.5c0.5-0.2,0.9-0.5,1.2-0.8v-4h-4.1v-1.1h5.4
			V176.2z"/>
		<path class="st1" d="M325.5,170.7h-7.2v6.3h8.2v1.1H317v-15.3h9.5v1.1h-8.2v5.8h7.2V170.7z"/>
		<path class="st1" d="M339.7,163.8h-5.3V178h-1.3v-14.2h-5.2v-1.1h11.8V163.8z"/>
		<path class="st1" d="M281.4,200.1c0-0.8-0.3-1.5-0.9-2c-0.6-0.5-1.7-1-3.3-1.4c-1.6-0.4-2.7-0.9-3.5-1.5c-1-0.7-1.6-1.7-1.6-2.9
			c0-1.2,0.5-2.1,1.4-2.9c1-0.7,2.2-1.1,3.7-1.1c1,0,1.9,0.2,2.7,0.6s1.4,0.9,1.9,1.6c0.4,0.7,0.7,1.5,0.7,2.3h-1.3
			c0-1-0.4-1.9-1.1-2.5c-0.7-0.6-1.7-1-2.9-1c-1.2,0-2.1,0.3-2.8,0.8s-1,1.2-1,2.1c0,0.8,0.3,1.4,0.9,1.9c0.6,0.5,1.6,0.9,3,1.3
			s2.4,0.8,3.1,1.2s1.2,0.9,1.6,1.4s0.5,1.2,0.5,2c0,1.2-0.5,2.2-1.4,2.9c-1,0.7-2.2,1.1-3.8,1.1c-1.1,0-2.1-0.2-3-0.6
			c-0.9-0.4-1.6-0.9-2.1-1.6s-0.7-1.5-0.7-2.4h1.3c0,1.1,0.4,1.9,1.2,2.6s1.9,0.9,3.2,0.9c1.2,0,2.2-0.3,2.9-0.8
			C281.1,201.7,281.4,201,281.4,200.1z"/>
		<path class="st1" d="M290,196.9l4.7-8.4h1.5l-5.5,9.6v5.8h-1.3v-5.8l-5.5-9.6h1.5L290,196.9z"/>
		<path class="st1" d="M307.1,200.1c0-0.8-0.3-1.5-0.9-2c-0.6-0.5-1.7-1-3.3-1.4c-1.6-0.4-2.7-0.9-3.5-1.5c-1-0.7-1.6-1.7-1.6-2.9
			c0-1.2,0.5-2.1,1.4-2.9c1-0.7,2.2-1.1,3.7-1.1c1,0,1.9,0.2,2.7,0.6s1.4,0.9,1.9,1.6c0.4,0.7,0.7,1.5,0.7,2.3H307
			c0-1-0.4-1.9-1.1-2.5c-0.7-0.6-1.7-1-2.9-1c-1.2,0-2.1,0.3-2.8,0.8s-1,1.2-1,2.1c0,0.8,0.3,1.4,0.9,1.9c0.6,0.5,1.6,0.9,3,1.3
			s2.4,0.8,3.1,1.2s1.2,0.9,1.6,1.4s0.5,1.2,0.5,2c0,1.2-0.5,2.2-1.4,2.9c-1,0.7-2.2,1.1-3.8,1.1c-1.1,0-2.1-0.2-3-0.6
			c-0.9-0.4-1.6-0.9-2.1-1.6s-0.7-1.5-0.7-2.4h1.3c0,1.1,0.4,1.9,1.2,2.6s1.9,0.9,3.2,0.9c1.2,0,2.2-0.3,2.9-0.8
			C306.8,201.7,307.1,201,307.1,200.1z"/>
		<path class="st1" d="M321.6,189.7h-5.3v14.2h-1.3v-14.2h-5.2v-1.1h11.8V189.7z"/>
		<path class="st1" d="M332.6,196.5h-7.2v6.3h8.2v1.1h-9.5v-15.3h9.5v1.1h-8.2v5.8h7.2V196.5z"/>
		<path class="st1" d="M338.1,188.6l5.7,13.5l5.7-13.5h1.7v15.3h-1.3v-6.7l0.1-6.8l-5.7,13.5h-1l-5.7-13.5l0.1,6.7v6.7h-1.3v-15.3
			H338.1z"/>
		<path class="st1" d="M354.5,192.3l-0.7-0.5c0.6-0.8,1-1.7,1-2.7v-1.4h1.2v1.1C356,190.2,355.5,191.4,354.5,192.3z"/>
		<path class="st1" d="M367.5,200.1c0-0.8-0.3-1.5-0.9-2c-0.6-0.5-1.7-1-3.3-1.4c-1.6-0.4-2.7-0.9-3.5-1.5c-1-0.7-1.6-1.7-1.6-2.9
			c0-1.2,0.5-2.1,1.4-2.9s2.2-1.1,3.7-1.1c1,0,1.9,0.2,2.7,0.6s1.4,0.9,1.9,1.6s0.7,1.5,0.7,2.3h-1.3c0-1-0.4-1.9-1.1-2.5
			c-0.7-0.6-1.7-1-2.9-1c-1.2,0-2.1,0.3-2.8,0.8c-0.7,0.5-1,1.2-1,2.1c0,0.8,0.3,1.4,0.9,1.9c0.6,0.5,1.6,0.9,3,1.3
			c1.4,0.4,2.4,0.8,3.1,1.2s1.2,0.9,1.6,1.4c0.4,0.6,0.5,1.2,0.5,2c0,1.2-0.5,2.2-1.4,2.9c-1,0.7-2.2,1.1-3.8,1.1
			c-1.1,0-2.1-0.2-3-0.6c-0.9-0.4-1.6-0.9-2.1-1.6s-0.7-1.5-0.7-2.4h1.3c0,1.1,0.4,1.9,1.2,2.6c0.8,0.6,1.9,0.9,3.2,0.9
			c1.2,0,2.2-0.3,2.9-0.8C367.2,201.7,367.5,201,367.5,200.1z"/>
		<path class="st1" d="M307.8,215.5h-5.3v14.2h-1.3v-14.2H296v-1.1h11.8V215.5z"/>
		<path class="st1" d="M311.9,229.8h-1.3v-15.3h1.3V229.8z"/>
		<path class="st1" d="M317.8,214.4l5.7,13.5l5.7-13.5h1.7v15.3h-1.3v-6.7l0.1-6.8l-5.7,13.5h-1l-5.7-13.5l0.1,6.7v6.7H316v-15.3
			H317.8z"/>
		<path class="st1" d="M343.2,222.4H336v6.3h8.2v1.1h-9.5v-15.3h9.5v1.1H336v5.8h7.2V222.4z"/>
	</g>
	<g>
		<rect x="0.5" y="156.8" class="st0" width="183.2" height="78.8"/>
		<path class="st1" d="M14.4,174.2c0-0.8-0.3-1.5-0.9-2c-0.6-0.5-1.7-1-3.3-1.4c-1.6-0.4-2.7-0.9-3.5-1.5c-1-0.7-1.6-1.7-1.6-2.9
			c0-1.2,0.5-2.1,1.4-2.9c1-0.7,2.2-1.1,3.7-1.1c1,0,1.9,0.2,2.7,0.6s1.4,0.9,1.9,1.6c0.4,0.7,0.7,1.5,0.7,2.3h-1.3
			c0-1-0.4-1.9-1.1-2.5c-0.7-0.6-1.7-1-2.9-1c-1.2,0-2.1,0.3-2.8,0.8s-1,1.2-1,2.1c0,0.8,0.3,1.4,0.9,1.9c0.6,0.5,1.6,0.9,3,1.3
			s2.4,0.8,3.1,1.2s1.2,0.9,1.6,1.4s0.5,1.2,0.5,2c0,1.2-0.5,2.2-1.4,2.9c-1,0.7-2.2,1.1-3.8,1.1c-1.1,0-2.1-0.2-3-0.6
			c-0.9-0.4-1.6-0.9-2.1-1.6s-0.7-1.5-0.7-2.4H6c0,1.1,0.4,1.9,1.2,2.6s1.9,0.9,3.2,0.9c1.2,0,2.2-0.3,2.9-0.8
			C14,175.8,14.4,175.1,14.4,174.2z"/>
		<path class="st1" d="M29,162.7v10.5c0,1-0.2,1.9-0.7,2.7c-0.4,0.8-1.1,1.4-1.9,1.8c-0.8,0.4-1.8,0.6-2.8,0.6
			c-1.6,0-2.9-0.4-3.9-1.3s-1.5-2.1-1.5-3.7v-10.6h1.3v10.4c0,1.3,0.4,2.3,1.1,3c0.7,0.7,1.7,1.1,3,1.1c1.3,0,2.3-0.4,3-1.1
			c0.7-0.7,1.1-1.7,1.1-3v-10.4H29z"/>
		<path class="st1" d="M32.6,178v-15.3h4.5c1.6,0,2.9,0.3,3.7,1c0.8,0.7,1.3,1.7,1.3,3c0,0.8-0.2,1.5-0.6,2.1s-1,1-1.8,1.3
			c0.9,0.2,1.6,0.6,2.2,1.3c0.5,0.7,0.8,1.5,0.8,2.4c0,1.4-0.4,2.4-1.3,3.2c-0.9,0.8-2.1,1.1-3.6,1.1H32.6z M33.9,169.6h3.5
			c1.1,0,1.9-0.3,2.5-0.8c0.6-0.5,0.9-1.2,0.9-2.1c0-1-0.3-1.7-0.9-2.2s-1.5-0.7-2.8-0.7h-3.2V169.6z M33.9,170.7v6.3h3.9
			c1.1,0,2-0.3,2.6-0.8c0.6-0.6,1-1.3,1-2.3c0-0.9-0.3-1.7-0.9-2.2c-0.6-0.5-1.5-0.8-2.6-0.8H33.9z"/>
		<path class="st1" d="M47.6,162.7l5.7,13.5l5.7-13.5h1.7V178h-1.3v-6.7l0.1-6.8L53.7,178h-1L47,164.5l0.1,6.7v6.7h-1.3v-15.3H47.6z
			"/>
		<path class="st1" d="M66.1,178h-1.3v-15.3h1.3V178z"/>
		<path class="st1" d="M80.7,163.8h-5.3V178h-1.3v-14.2h-5.2v-1.1h11.8V163.8z"/>
		<path class="st1" d="M87.9,179.3h-1.1l6.4-16.6h1.1L87.9,179.3z"/>
		<path class="st1" d="M112.7,162.7v10.5c0,1-0.2,1.9-0.7,2.7c-0.4,0.8-1.1,1.4-1.9,1.8c-0.8,0.4-1.8,0.6-2.8,0.6
			c-1.6,0-2.9-0.4-3.9-1.3s-1.5-2.1-1.5-3.7v-10.6h1.3v10.4c0,1.3,0.4,2.3,1.1,3c0.7,0.7,1.7,1.1,3,1.1c1.3,0,2.3-0.4,3-1.1
			c0.7-0.7,1.1-1.7,1.1-3v-10.4H112.7z"/>
		<path class="st1" d="M117.6,171.8v6.2h-1.3v-15.3h5.2c1.6,0,2.9,0.4,3.8,1.2c0.9,0.8,1.4,1.9,1.4,3.4c0,1.4-0.4,2.5-1.3,3.3
			s-2.2,1.2-3.9,1.2H117.6z M117.6,170.7h3.9c1.3,0,2.2-0.3,2.9-0.9c0.7-0.6,1-1.4,1-2.5c0-1.1-0.3-1.9-1-2.5c-0.7-0.6-1.6-1-2.8-1
			h-4V170.7z"/>
		<path class="st1" d="M129.6,178v-15.3h4.3c1.3,0,2.4,0.3,3.4,0.9c1,0.6,1.8,1.4,2.3,2.5c0.6,1.1,0.8,2.3,0.8,3.6v1.4
			c0,1.4-0.3,2.6-0.8,3.6c-0.6,1.1-1.3,1.9-2.3,2.5c-1,0.6-2.2,0.9-3.5,0.9H129.6z M130.9,163.8v13.1h2.9c1.6,0,2.9-0.5,3.9-1.6
			s1.5-2.5,1.5-4.3v-1.3c0-1.8-0.5-3.2-1.4-4.2c-1-1.1-2.2-1.6-3.8-1.6H130.9z"/>
		<path class="st1" d="M152,173.7h-7l-1.6,4.3h-1.4l5.8-15.3h1.2L155,178h-1.3L152,173.7z M145.5,172.6h6.1l-3.1-8.3L145.5,172.6z"
			/>
		<path class="st1" d="M167.6,163.8h-5.3V178h-1.3v-14.2h-5.2v-1.1h11.8V163.8z"/>
		<path class="st1" d="M178.5,170.7h-7.2v6.3h8.2v1.1h-9.5v-15.3h9.5v1.1h-8.2v5.8h7.2V170.7z"/>
		<path class="st1" d="M22.9,202l0.1,0.3l0.1-0.3l4.8-13.4h1.4l-5.7,15.3h-1.2l-5.7-15.3h1.4L22.9,202z"/>
		<path class="st1" d="M33.2,203.9h-1.3v-15.3h1.3V203.9z"/>
		<path class="st1" d="M46,200.1c0-0.8-0.3-1.5-0.9-2c-0.6-0.5-1.7-1-3.3-1.4c-1.6-0.4-2.7-0.9-3.5-1.5c-1-0.7-1.6-1.7-1.6-2.9
			c0-1.2,0.5-2.1,1.4-2.9c1-0.7,2.2-1.1,3.7-1.1c1,0,1.9,0.2,2.7,0.6s1.4,0.9,1.9,1.6c0.4,0.7,0.7,1.5,0.7,2.3h-1.3
			c0-1-0.4-1.9-1.1-2.5c-0.7-0.6-1.7-1-2.9-1c-1.2,0-2.1,0.3-2.8,0.8s-1,1.2-1,2.1c0,0.8,0.3,1.4,0.9,1.9c0.6,0.5,1.6,0.9,3,1.3
			s2.4,0.8,3.1,1.2s1.2,0.9,1.6,1.4s0.5,1.2,0.5,2c0,1.2-0.5,2.2-1.4,2.9c-1,0.7-2.2,1.1-3.8,1.1c-1.1,0-2.1-0.2-3-0.6
			c-0.9-0.4-1.6-0.9-2.1-1.6s-0.7-1.5-0.7-2.4h1.3c0,1.1,0.4,1.9,1.2,2.6s1.9,0.9,3.2,0.9c1.2,0,2.2-0.3,2.9-0.8
			C45.7,201.7,46,201,46,200.1z"/>
		<path class="st1" d="M60.7,188.6V199c0,1-0.2,1.9-0.7,2.7c-0.4,0.8-1.1,1.4-1.9,1.8c-0.8,0.4-1.8,0.6-2.8,0.6
			c-1.6,0-2.9-0.4-3.9-1.3s-1.5-2.1-1.5-3.7v-10.6h1.3v10.4c0,1.3,0.4,2.3,1.1,3c0.7,0.7,1.7,1.1,3,1.1c1.3,0,2.3-0.4,3-1.1
			c0.7-0.7,1.1-1.7,1.1-3v-10.4H60.7z"/>
		<path class="st1" d="M72.6,199.6h-7l-1.6,4.3h-1.4l5.8-15.3h1.2l5.8,15.3h-1.3L72.6,199.6z M66,198.5h6.1l-3.1-8.3L66,198.5z"/>
		<path class="st1" d="M79.1,202.8h7.6v1.1h-8.9v-15.3h1.3V202.8z"/>
		<path class="st1" d="M90.7,203.9h-1.3v-15.3h1.3V203.9z"/>
		<path class="st1" d="M95.4,202.8h9.5v1.1h-11v-1l9.1-13.3h-8.8v-1.1h10.4v0.9L95.4,202.8z"/>
		<path class="st1" d="M116,199.6h-7l-1.6,4.3h-1.4l5.8-15.3h1.2l5.8,15.3h-1.3L116,199.6z M109.5,198.5h6.1l-3.1-8.3L109.5,198.5z"
			/>
		<path class="st1" d="M131.6,189.7h-5.3v14.2h-1.3v-14.2h-5.2v-1.1h11.8V189.7z"/>
		<path class="st1" d="M135.7,203.9h-1.3v-15.3h1.3V203.9z"/>
		<path class="st1" d="M151.2,197.1c0,1.4-0.2,2.6-0.7,3.7c-0.5,1.1-1.2,1.9-2.1,2.5c-0.9,0.6-2,0.9-3.1,0.9c-1.8,0-3.2-0.6-4.3-1.9
			c-1.1-1.3-1.7-3-1.7-5.2v-1.6c0-1.4,0.2-2.6,0.7-3.7c0.5-1.1,1.2-1.9,2.1-2.5c0.9-0.6,1.9-0.9,3.1-0.9c1.2,0,2.2,0.3,3.1,0.9
			c0.9,0.6,1.6,1.4,2.1,2.4s0.7,2.2,0.8,3.6V197.1z M149.9,195.4c0-1.8-0.4-3.3-1.3-4.3s-2-1.6-3.4-1.6c-1.4,0-2.6,0.5-3.4,1.6
			s-1.3,2.5-1.3,4.4v1.6c0,1.8,0.4,3.3,1.3,4.3c0.8,1.1,2,1.6,3.4,1.6c1.5,0,2.6-0.5,3.4-1.6c0.8-1,1.2-2.5,1.2-4.4V195.4z"/>
		<path class="st1" d="M165.8,203.9h-1.3l-8.8-13.1v13.1h-1.3v-15.3h1.3l8.8,13.1v-13.1h1.3V203.9z"/>
		<path class="st1" d="M55.2,226c0-0.8-0.3-1.5-0.9-2c-0.6-0.5-1.7-1-3.3-1.4c-1.6-0.4-2.7-0.9-3.5-1.5c-1-0.7-1.6-1.7-1.6-2.9
			c0-1.2,0.5-2.1,1.4-2.9c1-0.7,2.2-1.1,3.7-1.1c1,0,1.9,0.2,2.7,0.6s1.4,0.9,1.9,1.6c0.4,0.7,0.7,1.5,0.7,2.3h-1.3
			c0-1-0.4-1.9-1.1-2.5c-0.7-0.6-1.7-1-2.9-1c-1.2,0-2.1,0.3-2.8,0.8s-1,1.2-1,2.1c0,0.8,0.3,1.4,0.9,1.9c0.6,0.5,1.6,0.9,3,1.3
			s2.4,0.8,3.1,1.2s1.2,0.9,1.6,1.4s0.5,1.2,0.5,2c0,1.2-0.5,2.2-1.4,2.9c-1,0.7-2.2,1.1-3.8,1.1c-1.1,0-2.1-0.2-3-0.6
			c-0.9-0.4-1.6-0.9-2.1-1.6s-0.7-1.5-0.7-2.4h1.3c0,1.1,0.4,1.9,1.2,2.6s1.9,0.9,3.2,0.9c1.2,0,2.2-0.3,2.9-0.8
			C54.8,227.6,55.2,226.9,55.2,226z"/>
		<path class="st1" d="M63.8,222.8l4.7-8.4H70l-5.5,9.6v5.8h-1.3V224l-5.5-9.6h1.5L63.8,222.8z"/>
		<path class="st1" d="M80.9,226c0-0.8-0.3-1.5-0.9-2c-0.6-0.5-1.7-1-3.3-1.4c-1.6-0.4-2.7-0.9-3.5-1.5c-1-0.7-1.6-1.7-1.6-2.9
			c0-1.2,0.5-2.1,1.4-2.9c1-0.7,2.2-1.1,3.7-1.1c1,0,1.9,0.2,2.7,0.6s1.4,0.9,1.9,1.6c0.4,0.7,0.7,1.5,0.7,2.3h-1.3
			c0-1-0.4-1.9-1.1-2.5c-0.7-0.6-1.7-1-2.9-1c-1.2,0-2.1,0.3-2.8,0.8s-1,1.2-1,2.1c0,0.8,0.3,1.4,0.9,1.9c0.6,0.5,1.6,0.9,3,1.3
			s2.4,0.8,3.1,1.2s1.2,0.9,1.6,1.4s0.5,1.2,0.5,2c0,1.2-0.5,2.2-1.4,2.9c-1,0.7-2.2,1.1-3.8,1.1c-1.1,0-2.1-0.2-3-0.6
			c-0.9-0.4-1.6-0.9-2.1-1.6s-0.7-1.5-0.7-2.4h1.3c0,1.1,0.4,1.9,1.2,2.6s1.9,0.9,3.2,0.9c1.2,0,2.2-0.3,2.9-0.8
			C80.5,227.6,80.9,226.9,80.9,226z"/>
		<path class="st1" d="M95.4,215.5h-5.3v14.2h-1.3v-14.2h-5.2v-1.1h11.8V215.5z"/>
		<path class="st1" d="M106.3,222.4h-7.2v6.3h8.2v1.1h-9.5v-15.3h9.5v1.1h-8.2v5.8h7.2V222.4z"/>
		<path class="st1" d="M111.8,214.4l5.7,13.5l5.7-13.5h1.7v15.3h-1.3v-6.7l0.1-6.8l-5.7,13.5h-1l-5.7-13.5l0.1,6.7v6.7h-1.3v-15.3
			H111.8z"/>
		<path class="st1" d="M137.4,226c0-0.8-0.3-1.5-0.9-2c-0.6-0.5-1.7-1-3.3-1.4c-1.6-0.4-2.7-0.9-3.5-1.5c-1-0.7-1.6-1.7-1.6-2.9
			c0-1.2,0.5-2.1,1.4-2.9s2.2-1.1,3.7-1.1c1,0,1.9,0.2,2.7,0.6s1.4,0.9,1.9,1.6s0.7,1.5,0.7,2.3h-1.3c0-1-0.4-1.9-1.1-2.5
			c-0.7-0.6-1.7-1-2.9-1c-1.2,0-2.1,0.3-2.8,0.8c-0.7,0.5-1,1.2-1,2.1c0,0.8,0.3,1.4,0.9,1.9c0.6,0.5,1.6,0.9,3,1.3
			c1.4,0.4,2.4,0.8,3.1,1.2s1.2,0.9,1.6,1.4c0.4,0.6,0.5,1.2,0.5,2c0,1.2-0.5,2.2-1.4,2.9c-1,0.7-2.2,1.1-3.8,1.1
			c-1.1,0-2.1-0.2-3-0.6c-0.9-0.4-1.6-0.9-2.1-1.6c-0.5-0.7-0.7-1.5-0.7-2.4h1.3c0,1.1,0.4,1.9,1.2,2.6c0.8,0.6,1.9,0.9,3.2,0.9
			c1.2,0,2.2-0.3,2.9-0.8C137.1,227.6,137.4,226.9,137.4,226z"/>
	</g>
	<g>
		<rect x="228.7" y="274.1" class="st0" width="183.2" height="52.9"/>
		<path class="st1" d="M278.5,288.5c0,1.4-0.2,2.6-0.7,3.7c-0.5,1.1-1.2,1.9-2.1,2.5c-0.9,0.6-2,0.9-3.1,0.9c-1.8,0-3.2-0.6-4.3-1.9
			c-1.1-1.3-1.7-3-1.7-5.2v-1.6c0-1.4,0.2-2.6,0.7-3.7c0.5-1.1,1.2-1.9,2.1-2.5s1.9-0.9,3.1-0.9s2.2,0.3,3.1,0.9
			c0.9,0.6,1.6,1.4,2.1,2.4c0.5,1,0.7,2.2,0.8,3.6V288.5z M277.2,286.8c0-1.8-0.4-3.3-1.3-4.3c-0.8-1-2-1.6-3.4-1.6
			c-1.4,0-2.6,0.5-3.4,1.6c-0.8,1-1.3,2.5-1.3,4.4v1.6c0,1.8,0.4,3.3,1.3,4.3s2,1.6,3.4,1.6c1.5,0,2.6-0.5,3.4-1.6
			c0.8-1,1.2-2.5,1.2-4.4V286.8z"/>
		<path class="st1" d="M281.7,295.3V280h4.5c1.6,0,2.9,0.3,3.7,1c0.8,0.7,1.3,1.7,1.3,3c0,0.8-0.2,1.5-0.6,2.1c-0.4,0.6-1,1-1.8,1.3
			c0.9,0.2,1.6,0.6,2.2,1.3c0.5,0.7,0.8,1.5,0.8,2.4c0,1.4-0.4,2.4-1.3,3.2c-0.9,0.8-2.1,1.1-3.6,1.1H281.7z M283,286.8h3.5
			c1.1,0,1.9-0.3,2.5-0.8c0.6-0.5,0.9-1.2,0.9-2.1c0-1-0.3-1.7-0.9-2.2c-0.6-0.5-1.5-0.7-2.8-0.7H283V286.8z M283,287.9v6.3h3.9
			c1.1,0,2-0.3,2.6-0.8c0.6-0.6,1-1.3,1-2.3c0-0.9-0.3-1.7-0.9-2.2s-1.5-0.8-2.6-0.8H283z"/>
		<path class="st1" d="M301.7,280h1.3v10.8c0,1.5-0.4,2.6-1.3,3.5c-0.8,0.9-2,1.3-3.4,1.3c-1.5,0-2.6-0.4-3.4-1.2s-1.2-1.9-1.2-3.3
			h1.3c0,1.1,0.3,1.9,0.9,2.5c0.6,0.6,1.4,0.8,2.5,0.8c1,0,1.8-0.3,2.4-1c0.6-0.6,0.9-1.5,0.9-2.6V280z"/>
		<path class="st1" d="M315.3,287.9h-7.2v6.3h8.2v1.1h-9.5V280h9.5v1.1h-8.2v5.8h7.2V287.9z"/>
		<path class="st1" d="M329.9,290.5c-0.2,1.6-0.8,2.9-1.7,3.7c-1,0.9-2.3,1.3-3.9,1.3c-1.1,0-2.1-0.3-3-0.9c-0.9-0.6-1.5-1.4-2-2.4
			c-0.5-1-0.7-2.2-0.7-3.6v-2c0-1.4,0.2-2.6,0.7-3.6c0.5-1.1,1.2-1.9,2.1-2.4s1.9-0.9,3.1-0.9c1.6,0,2.9,0.4,3.9,1.3
			c1,0.9,1.5,2.1,1.7,3.7h-1.3c-0.3-2.6-1.7-3.9-4.2-3.9c-1.4,0-2.5,0.5-3.3,1.6c-0.8,1-1.2,2.5-1.2,4.3v1.9c0,1.8,0.4,3.2,1.2,4.2
			s1.9,1.6,3.3,1.6c1.4,0,2.4-0.3,3.1-1s1.1-1.6,1.3-2.9H329.9z"/>
		<path class="st1" d="M343.5,281.1h-5.3v14.2h-1.3v-14.2h-5.2V280h11.8V281.1z"/>
		<path class="st1" d="M347.5,295.3h-1.3V280h1.3V295.3z"/>
		<path class="st1" d="M356.3,293.4l0.1,0.3l0.1-0.3l4.8-13.4h1.4l-5.7,15.3h-1.2l-5.7-15.3h1.4L356.3,293.4z"/>
		<path class="st1" d="M373.5,287.9h-7.2v6.3h8.2v1.1H365V280h9.5v1.1h-8.2v5.8h7.2V287.9z"/>
		<path class="st1" d="M307.8,306.9h-5.3v14.2h-1.3v-14.2H296v-1.1h11.8V306.9z"/>
		<path class="st1" d="M311.9,321.2h-1.3v-15.3h1.3V321.2z"/>
		<path class="st1" d="M317.8,305.8l5.7,13.5l5.7-13.5h1.7v15.3h-1.3v-6.7l0.1-6.8l-5.7,13.5h-1l-5.7-13.5l0.1,6.7v6.7H316v-15.3
			H317.8z"/>
		<path class="st1" d="M343.2,313.8H336v6.3h8.2v1.1h-9.5v-15.3h9.5v1.1H336v5.8h7.2V313.8z"/>
	</g>
	<g>
		<rect x="0.5" y="274.1" class="st0" width="183.2" height="52.9"/>
		<path class="st1" d="M41.5,291.5c0-0.8-0.3-1.5-0.9-2c-0.6-0.5-1.7-1-3.3-1.4c-1.6-0.4-2.7-0.9-3.5-1.5c-1-0.7-1.6-1.7-1.6-2.9
			c0-1.2,0.5-2.1,1.4-2.9c1-0.7,2.2-1.1,3.7-1.1c1,0,1.9,0.2,2.7,0.6c0.8,0.4,1.4,0.9,1.9,1.6c0.4,0.7,0.7,1.5,0.7,2.3h-1.3
			c0-1-0.4-1.9-1.1-2.5c-0.7-0.6-1.7-1-2.9-1c-1.2,0-2.1,0.3-2.8,0.8s-1,1.2-1,2.1c0,0.8,0.3,1.4,0.9,1.9c0.6,0.5,1.6,0.9,3,1.3
			s2.4,0.8,3.1,1.2s1.2,0.9,1.6,1.4s0.5,1.2,0.5,2c0,1.2-0.5,2.2-1.4,2.9c-1,0.7-2.2,1.1-3.8,1.1c-1.1,0-2.1-0.2-3-0.6
			c-0.9-0.4-1.6-0.9-2.1-1.6c-0.5-0.7-0.7-1.5-0.7-2.4h1.3c0,1.1,0.4,1.9,1.2,2.6s1.9,0.9,3.2,0.9c1.2,0,2.2-0.3,2.9-0.8
			C41.1,293.1,41.5,292.4,41.5,291.5z"/>
		<path class="st1" d="M56.1,280v10.5c0,1-0.2,1.9-0.7,2.7c-0.4,0.8-1.1,1.4-1.9,1.8c-0.8,0.4-1.8,0.6-2.8,0.6
			c-1.6,0-2.9-0.4-3.9-1.3s-1.5-2.1-1.5-3.7V280h1.3v10.4c0,1.3,0.4,2.3,1.1,3c0.7,0.7,1.7,1.1,3,1.1c1.3,0,2.3-0.4,3-1.1
			s1.1-1.7,1.1-3V280H56.1z"/>
		<path class="st1" d="M59.7,295.3V280h4.5c1.6,0,2.9,0.3,3.7,1c0.8,0.7,1.3,1.7,1.3,3c0,0.8-0.2,1.5-0.6,2.1c-0.4,0.6-1,1-1.8,1.3
			c0.9,0.2,1.6,0.6,2.2,1.3c0.5,0.7,0.8,1.5,0.8,2.4c0,1.4-0.4,2.4-1.3,3.2c-0.9,0.8-2.1,1.1-3.6,1.1H59.7z M61,286.8h3.5
			c1.1,0,1.9-0.3,2.5-0.8c0.6-0.5,0.9-1.2,0.9-2.1c0-1-0.3-1.7-0.9-2.2c-0.6-0.5-1.5-0.7-2.8-0.7H61V286.8z M61,287.9v6.3h3.9
			c1.1,0,2-0.3,2.6-0.8c0.6-0.6,1-1.3,1-2.3c0-0.9-0.3-1.7-0.9-2.2s-1.5-0.8-2.6-0.8H61z"/>
		<path class="st1" d="M79.7,280H81v10.8c0,1.5-0.4,2.6-1.3,3.5c-0.8,0.9-2,1.3-3.4,1.3c-1.5,0-2.6-0.4-3.4-1.2s-1.2-1.9-1.2-3.3
			h1.3c0,1.1,0.3,1.9,0.9,2.5c0.6,0.6,1.4,0.8,2.5,0.8c1,0,1.8-0.3,2.4-1c0.6-0.6,0.9-1.5,0.9-2.6V280z"/>
		<path class="st1" d="M93.3,287.9h-7.2v6.3h8.2v1.1h-9.5V280h9.5v1.1h-8.2v5.8h7.2V287.9z"/>
		<path class="st1" d="M107.9,290.5c-0.2,1.6-0.8,2.9-1.7,3.7c-1,0.9-2.3,1.3-3.9,1.3c-1.1,0-2.1-0.3-3-0.9c-0.9-0.6-1.5-1.4-2-2.4
			c-0.5-1-0.7-2.2-0.7-3.6v-2c0-1.4,0.2-2.6,0.7-3.6c0.5-1.1,1.2-1.9,2.1-2.4s1.9-0.9,3.1-0.9c1.6,0,2.9,0.4,3.9,1.3
			c1,0.9,1.5,2.1,1.7,3.7h-1.3c-0.3-2.6-1.7-3.9-4.2-3.9c-1.4,0-2.5,0.5-3.3,1.6c-0.8,1-1.2,2.5-1.2,4.3v1.9c0,1.8,0.4,3.2,1.2,4.2
			s1.9,1.6,3.3,1.6c1.4,0,2.4-0.3,3.1-1s1.1-1.6,1.3-2.9H107.9z"/>
		<path class="st1" d="M121.5,281h-5.3v14.2h-1.3V281h-5.2V280h11.8V281z"/>
		<path class="st1" d="M125.5,295.3h-1.3V280h1.3V295.3z"/>
		<path class="st1" d="M134.3,293.4l0.1,0.3l0.1-0.3l4.8-13.4h1.4l-5.7,15.3h-1.2l-5.7-15.3h1.4L134.3,293.4z"/>
		<path class="st1" d="M151.5,287.9h-7.2v6.3h8.2v1.1H143V280h9.5v1.1h-8.2v5.8h7.2V287.9z"/>
		<path class="st1" d="M79.7,306.9h-5.3v14.2h-1.3v-14.2h-5.2v-1.1h11.8V306.9z"/>
		<path class="st1" d="M83.7,321.2h-1.3v-15.3h1.3V321.2z"/>
		<path class="st1" d="M89.6,305.8l5.7,13.5l5.7-13.5h1.7v15.3h-1.3v-6.7l0.1-6.8l-5.7,13.5h-1l-5.7-13.5l0.1,6.7v6.7h-1.3v-15.3
			H89.6z"/>
		<path class="st1" d="M115,313.8h-7.2v6.3h8.2v1.1h-9.5v-15.3h9.5v1.1h-8.2v5.8h7.2V313.8z"/>
	</g>
	<g>
		<rect x="459.6" y="458.3" class="st0" width="223.7" height="27"/>
		<path class="st1" d="M544.2,479.5H543v-15.3h1.3V479.5z"/>
		<path class="st1" d="M559.8,479.5h-1.3l-8.8-13.1v13.1h-1.3v-15.3h1.3l8.8,13.1v-13.1h1.3V479.5z"/>
		<path class="st1" d="M565,473.3v6.2h-1.3v-15.3h5.2c1.6,0,2.9,0.4,3.8,1.2c0.9,0.8,1.4,1.9,1.4,3.4c0,1.4-0.4,2.5-1.3,3.3
			s-2.2,1.2-3.9,1.2H565z M565,472.2h3.9c1.3,0,2.2-0.3,2.9-0.9c0.7-0.6,1-1.4,1-2.5c0-1.1-0.3-1.9-1-2.5c-0.7-0.6-1.6-1-2.8-1h-4
			V472.2z"/>
		<path class="st1" d="M587.6,464.2v10.5c0,1-0.2,1.9-0.7,2.7c-0.4,0.8-1.1,1.4-1.9,1.8c-0.8,0.4-1.8,0.6-2.8,0.6
			c-1.6,0-2.9-0.4-3.9-1.3c-1-0.9-1.5-2.1-1.5-3.7v-10.6h1.3v10.4c0,1.3,0.4,2.3,1.1,3c0.7,0.7,1.7,1.1,3,1.1c1.3,0,2.3-0.4,3-1.1
			c0.7-0.7,1.1-1.7,1.1-3v-10.4H587.6z"/>
		<path class="st1" d="M601.6,465.3h-5.3v14.2H595v-14.2h-5.2v-1.1h11.8V465.3z"/>
	</g>
	<g>
		<rect x="228.7" y="366.1" class="st0" width="183.2" height="52.9"/>
		<path class="st1" d="M299.3,383.2l0.5,2.4l0.6-2.3l3.3-11.3h1.2l3.3,11.3l0.6,2.3l0.5-2.4L312,372h1.3l-3.9,15.3h-1.2l-3.5-12
			l-0.4-1.5l-0.4,1.5l-3.6,12h-1.2l-3.9-15.3h1.3L299.3,383.2z"/>
		<path class="st1" d="M324.1,383h-7l-1.6,4.3h-1.4L320,372h1.2l5.8,15.3h-1.3L324.1,383z M317.5,381.9h6.1l-3.1-8.3L317.5,381.9z"
			/>
		<path class="st1" d="M330.9,387.3h-1.3V372h1.3V387.3z"/>
		<path class="st1" d="M345.4,373.1h-5.3v14.2h-1.3v-14.2h-5.2V372h11.8V373.1z"/>
		<path class="st1" d="M277.1,406H270v7.2h-1.3v-15.3h9.5v1.1H270v6h7.1V406z"/>
		<path class="st1" d="M292.1,406.3c0,1.4-0.2,2.6-0.7,3.7c-0.5,1.1-1.2,1.9-2.1,2.5c-0.9,0.6-2,0.9-3.1,0.9c-1.8,0-3.2-0.6-4.3-1.9
			c-1.1-1.3-1.7-3-1.7-5.2v-1.6c0-1.4,0.2-2.6,0.7-3.7c0.5-1.1,1.2-1.9,2.1-2.5s1.9-0.9,3.1-0.9s2.2,0.3,3.1,0.9
			c0.9,0.6,1.6,1.4,2.1,2.4c0.5,1,0.7,2.2,0.8,3.6V406.3z M290.8,404.7c0-1.8-0.4-3.3-1.3-4.3c-0.8-1-2-1.6-3.4-1.6
			c-1.4,0-2.6,0.5-3.4,1.6c-0.8,1-1.3,2.5-1.3,4.4v1.6c0,1.8,0.4,3.3,1.3,4.3s2,1.6,3.4,1.6c1.5,0,2.6-0.5,3.4-1.6
			c0.8-1,1.2-2.5,1.2-4.4V404.7z"/>
		<path class="st1" d="M301.1,406.8h-4.5v6.4h-1.3v-15.3h5c1.6,0,2.9,0.4,3.8,1.2s1.4,1.9,1.4,3.3c0,1-0.3,1.8-0.9,2.6
			c-0.6,0.8-1.3,1.3-2.3,1.6l3.8,6.5v0.1h-1.4L301.1,406.8z M296.7,405.7h4c1.1,0,2-0.3,2.6-0.9c0.7-0.6,1-1.4,1-2.4
			c0-1.1-0.3-1.9-1-2.5c-0.7-0.6-1.7-0.9-2.9-0.9h-3.7V405.7z"/>
		<path class="st1" d="M315.9,413.2h-1.3v-15.3h1.3V413.2z"/>
		<path class="st1" d="M331.5,413.2h-1.3l-8.8-13.1v13.1h-1.3v-15.3h1.3l8.8,13.1v-13.1h1.3V413.2z"/>
		<path class="st1" d="M336.7,406.9v6.2h-1.3v-15.3h5.2c1.6,0,2.9,0.4,3.8,1.2c0.9,0.8,1.4,1.9,1.4,3.4c0,1.4-0.4,2.5-1.3,3.3
			c-0.9,0.8-2.2,1.2-3.9,1.2H336.7z M336.7,405.8h3.9c1.3,0,2.2-0.3,2.9-0.9c0.7-0.6,1-1.4,1-2.5c0-1.1-0.3-1.9-1-2.5s-1.6-1-2.8-1
			h-4V405.8z"/>
		<path class="st1" d="M359.2,397.8v10.5c0,1-0.2,1.9-0.7,2.7c-0.4,0.8-1.1,1.4-1.9,1.8c-0.8,0.4-1.8,0.6-2.8,0.6
			c-1.6,0-2.9-0.4-3.9-1.3c-1-0.9-1.5-2.1-1.5-3.7v-10.6h1.3v10.4c0,1.3,0.4,2.3,1.1,3c0.7,0.7,1.7,1.1,3,1.1c1.3,0,2.3-0.4,3-1.1
			c0.7-0.7,1.1-1.7,1.1-3v-10.4H359.2z"/>
		<path class="st1" d="M373.2,398.9H368v14.2h-1.3v-14.2h-5.2v-1.1h11.8V398.9z"/>
	</g>
	<g>
		<rect x="228.7" y="458.3" class="st0" width="183.2" height="52.9"/>
		<path class="st1" d="M297.6,474.7c-0.2,1.6-0.8,2.9-1.7,3.7c-1,0.9-2.3,1.3-3.9,1.3c-1.1,0-2.1-0.3-3-0.9c-0.9-0.6-1.5-1.4-2-2.4
			c-0.5-1-0.7-2.2-0.7-3.6v-2c0-1.4,0.2-2.6,0.7-3.6c0.5-1.1,1.2-1.9,2.1-2.4s1.9-0.9,3.1-0.9c1.6,0,2.9,0.4,3.9,1.3
			c1,0.9,1.5,2.1,1.7,3.7h-1.3c-0.3-2.6-1.7-3.9-4.2-3.9c-1.4,0-2.5,0.5-3.3,1.6c-0.8,1-1.2,2.5-1.2,4.3v1.9c0,1.8,0.4,3.2,1.2,4.2
			s1.9,1.6,3.3,1.6c1.4,0,2.4-0.3,3.1-1s1.1-1.6,1.3-2.9H297.6z"/>
		<path class="st1" d="M312.1,472.7c0,1.4-0.2,2.6-0.7,3.7c-0.5,1.1-1.2,1.9-2.1,2.5c-0.9,0.6-2,0.9-3.1,0.9c-1.8,0-3.2-0.6-4.3-1.9
			c-1.1-1.3-1.7-3-1.7-5.2V471c0-1.4,0.2-2.6,0.7-3.7c0.5-1.1,1.2-1.9,2.1-2.5s1.9-0.9,3.1-0.9s2.2,0.3,3.1,0.9
			c0.9,0.6,1.6,1.4,2.1,2.4c0.5,1,0.7,2.2,0.8,3.6V472.7z M310.8,471c0-1.8-0.4-3.3-1.3-4.3c-0.8-1-2-1.6-3.4-1.6
			c-1.4,0-2.6,0.5-3.4,1.6c-0.8,1-1.3,2.5-1.3,4.4v1.6c0,1.8,0.4,3.3,1.3,4.3s2,1.6,3.4,1.6c1.5,0,2.6-0.5,3.4-1.6
			c0.8-1,1.2-2.5,1.2-4.4V471z"/>
		<path class="st1" d="M325.9,464.2v10.5c0,1-0.2,1.9-0.7,2.7c-0.4,0.8-1.1,1.4-1.9,1.8c-0.8,0.4-1.8,0.6-2.8,0.6
			c-1.6,0-2.9-0.4-3.9-1.3s-1.5-2.1-1.5-3.7v-10.6h1.3v10.4c0,1.3,0.4,2.3,1.1,3c0.7,0.7,1.7,1.1,3,1.1c1.3,0,2.3-0.4,3-1.1
			s1.1-1.7,1.1-3v-10.4H325.9z"/>
		<path class="st1" d="M340.9,479.5h-1.3l-8.8-13.1v13.1h-1.3v-15.3h1.3l8.8,13.1v-13.1h1.3V479.5z"/>
		<path class="st1" d="M355.2,465.3h-5.3v14.2h-1.3v-14.2h-5.2v-1.1h11.8V465.3z"/>
		<path class="st1" d="M298,501.6c0-0.8-0.3-1.5-0.9-2c-0.6-0.5-1.7-1-3.3-1.4c-1.6-0.4-2.7-0.9-3.5-1.5c-1-0.7-1.6-1.7-1.6-2.9
			c0-1.2,0.5-2.1,1.4-2.9c1-0.7,2.2-1.1,3.7-1.1c1,0,1.9,0.2,2.7,0.6c0.8,0.4,1.4,0.9,1.9,1.6c0.4,0.7,0.7,1.5,0.7,2.3h-1.3
			c0-1-0.4-1.9-1.1-2.5c-0.7-0.6-1.7-1-2.9-1c-1.2,0-2.1,0.3-2.8,0.8s-1,1.2-1,2.1c0,0.8,0.3,1.4,0.9,1.9c0.6,0.5,1.6,0.9,3,1.3
			s2.4,0.8,3.1,1.2s1.2,0.9,1.6,1.4s0.5,1.2,0.5,2c0,1.2-0.5,2.2-1.4,2.9c-1,0.7-2.2,1.1-3.8,1.1c-1.1,0-2.1-0.2-3-0.6
			c-0.9-0.4-1.6-0.9-2.1-1.6c-0.5-0.7-0.7-1.5-0.7-2.4h1.3c0,1.1,0.4,1.9,1.2,2.6s1.9,0.9,3.2,0.9c1.2,0,2.2-0.3,2.9-0.8
			C297.7,503.2,298,502.5,298,501.6z"/>
		<path class="st1" d="M312.5,491.1h-5.3v14.2H306v-14.2h-5.2v-1.1h11.8V491.1z"/>
		<path class="st1" d="M323.3,501.1h-7l-1.6,4.3h-1.4l5.8-15.3h1.2l5.8,15.3h-1.3L323.3,501.1z M316.7,500h6.1l-3.1-8.3L316.7,500z"
			/>
		<path class="st1" d="M334.2,499h-4.5v6.4h-1.3v-15.3h5c1.6,0,2.9,0.4,3.8,1.2s1.4,1.9,1.4,3.3c0,1-0.3,1.8-0.9,2.6
			c-0.6,0.8-1.3,1.3-2.3,1.6l3.8,6.5v0.1h-1.4L334.2,499z M329.7,497.9h4c1.1,0,2-0.3,2.6-0.9c0.7-0.6,1-1.4,1-2.4
			c0-1.1-0.3-1.9-1-2.5c-0.7-0.6-1.7-0.9-2.9-0.9h-3.7V497.9z"/>
		<path class="st1" d="M352.6,491.1h-5.3v14.2H346v-14.2h-5.2v-1.1h11.8V491.1z"/>
	</g>
	<g class="st2">
		<path class="st3" d="M581.6,12c0-0.8-0.7-1.3-2-1.6c-0.8-0.2-1.3-0.4-1.6-0.6s-0.5-0.6-0.5-1.1c0-0.5,0.2-0.8,0.6-1.1
			s0.9-0.5,1.5-0.5c0.7,0,1.2,0.2,1.6,0.5s0.6,0.8,0.6,1.3h-0.3c0-0.4-0.2-0.8-0.5-1.1c-0.4-0.3-0.8-0.4-1.4-0.4
			c-0.6,0-1,0.1-1.3,0.4s-0.5,0.5-0.5,0.9c0,0.3,0.1,0.5,0.2,0.7s0.3,0.3,0.6,0.4s0.7,0.3,1.2,0.4s0.9,0.3,1.2,0.4s0.5,0.4,0.7,0.6
			s0.2,0.5,0.2,0.8c0,0.5-0.2,0.9-0.6,1.2s-0.9,0.5-1.6,0.5c-0.7,0-1.3-0.2-1.7-0.5s-0.7-0.7-0.7-1.2h0.3c0,0.4,0.2,0.8,0.6,1
			s0.9,0.4,1.5,0.4c0.6,0,1-0.1,1.4-0.4S581.6,12.3,581.6,12z"/>
		<path class="st3" d="M589.5,5.3h-3.1v8.2h-0.3V5.3h-3.1V5h6.5V5.3z"/>
		<path class="st3" d="M591.5,13.5h-0.3V5h0.3V13.5z"/>
		<path class="st3" d="M594.5,5l3.5,8.1l3.5-8.1h0.5v8.5h-0.3V5.5l-3.5,8.1h-0.3l-3.5-8v8h-0.3V5H594.5z"/>
		<path class="st3" d="M609,9.3h-4.3v3.9h4.9v0.3h-5.2V5h5.2v0.3h-4.9V9h4.3V9.3z"/>
		<path class="st3" d="M614.4,13.5v-6h-1.1V7.2h1.1V6.3c0-0.6,0.2-1,0.4-1.4s0.7-0.5,1.2-0.5c0.3,0,0.5,0,0.8,0.1l0,0.3
			c-0.2-0.1-0.4-0.1-0.7-0.1c-0.4,0-0.7,0.1-1,0.4s-0.4,0.7-0.4,1.2v0.9h1.7v0.3h-1.7v6H614.4z"/>
		<path class="st3" d="M618.1,13.5h-0.3v-9h0.3V13.5z"/>
		<path class="st3" d="M619.7,10.2c0-0.6,0.1-1.1,0.3-1.6s0.6-0.9,1-1.1s0.9-0.4,1.4-0.4c0.5,0,1,0.1,1.4,0.4s0.8,0.6,1,1.1
			s0.4,1,0.4,1.6v0.3c0,0.6-0.1,1.2-0.3,1.6s-0.6,0.9-1,1.1s-0.9,0.4-1.4,0.4s-1-0.1-1.4-0.4s-0.8-0.6-1-1.1s-0.4-1-0.4-1.6V10.2z
			 M620,10.5c0,0.5,0.1,1,0.3,1.5s0.5,0.8,0.9,1s0.8,0.4,1.3,0.4c0.7,0,1.3-0.3,1.8-0.8s0.7-1.2,0.7-2.1v-0.2c0-0.5-0.1-1-0.3-1.4
			s-0.5-0.8-0.9-1c-0.4-0.2-0.8-0.4-1.3-0.4c-0.7,0-1.3,0.3-1.8,0.8s-0.7,1.2-0.7,2.1V10.5z"/>
		<path class="st3" d="M627.9,11.7l0.3,1.4l1.9-5.9h0.3l1.8,5.9l0.4-1.4l1.3-4.5h0.4l-1.8,6.3h-0.3l-1.6-4.8l-0.3-1.1L630,8.8
			l-1.5,4.8h-0.3l-1.8-6.3h0.4L627.9,11.7z"/>
		<path class="st3" d="M638.4,10.3c0-1,0.2-1.8,0.6-2.4s1-0.9,1.8-0.9c0.5,0,0.9,0.1,1.3,0.3s0.7,0.5,0.9,1V4.5h0.3v9H643v-1
			c-0.2,0.4-0.5,0.6-0.9,0.8s-0.8,0.3-1.3,0.3c-0.7,0-1.3-0.3-1.7-0.9S638.4,11.4,638.4,10.3L638.4,10.3z M638.8,10.4
			c0,0.9,0.2,1.6,0.5,2.1s0.9,0.8,1.5,0.8c0.5,0,1-0.1,1.3-0.3s0.6-0.6,0.8-1V9c-0.4-1.1-1.1-1.6-2.2-1.6c-0.6,0-1.2,0.3-1.5,0.8
			S638.8,9.4,638.8,10.4z"/>
		<path class="st3" d="M645.2,5.2c0-0.1,0-0.2,0.1-0.2s0.1-0.1,0.2-0.1s0.2,0,0.2,0.1s0.1,0.1,0.1,0.2s0,0.2-0.1,0.2
			s-0.1,0.1-0.2,0.1s-0.2,0-0.2-0.1S645.2,5.3,645.2,5.2z M645.7,13.5h-0.3V7.2h0.3V13.5z"/>
		<path class="st3" d="M651.9,13.5c-0.1-0.3-0.1-0.7-0.1-1.2c-0.3,0.4-0.6,0.7-1,0.9s-0.9,0.3-1.5,0.3c-0.6,0-1.1-0.2-1.4-0.5
			s-0.5-0.7-0.5-1.2c0-0.6,0.3-1,0.8-1.4s1.2-0.5,2.1-0.5h1.6V9.1c0-0.5-0.2-0.9-0.5-1.2c-0.3-0.3-0.8-0.4-1.4-0.4
			c-0.6,0-1.1,0.1-1.4,0.4c-0.4,0.3-0.6,0.7-0.6,1.1l-0.3,0c0-0.5,0.2-1,0.7-1.3s1-0.5,1.7-0.5c0.7,0,1.2,0.2,1.6,0.5
			s0.6,0.8,0.6,1.4v3c0,0.7,0.1,1.2,0.2,1.4v0.1H651.9z M649.3,13.3c0.6,0,1.1-0.1,1.5-0.4s0.7-0.6,1-1.1v-1.5h-1.5
			c-0.9,0-1.6,0.2-2.1,0.5c-0.4,0.3-0.6,0.7-0.6,1.1c0,0.4,0.2,0.7,0.5,1S648.8,13.3,649.3,13.3z"/>
		<path class="st3" d="M653.8,10.3c0-1,0.2-1.8,0.6-2.4s1-0.9,1.8-0.9c0.5,0,0.9,0.1,1.3,0.3s0.7,0.5,0.9,1V7.2h0.3v6.2
			c0,0.8-0.2,1.5-0.6,2s-1,0.7-1.8,0.7c-0.4,0-0.8-0.1-1.2-0.3c-0.4-0.2-0.7-0.4-0.9-0.8l0.2-0.2c0.2,0.3,0.5,0.6,0.8,0.7
			c0.3,0.2,0.6,0.2,1,0.2c0.7,0,1.2-0.2,1.5-0.6c0.4-0.4,0.6-1,0.6-1.7v-1c-0.2,0.4-0.5,0.6-0.9,0.8s-0.8,0.3-1.3,0.3
			c-0.7,0-1.3-0.3-1.7-0.9S653.8,11.4,653.8,10.3L653.8,10.3z M654.1,10.4c0,0.9,0.2,1.6,0.5,2.1s0.9,0.8,1.5,0.8
			c0.5,0,1-0.1,1.4-0.4s0.6-0.6,0.8-1V9c-0.3-1.1-1.1-1.6-2.2-1.6c-0.7,0-1.2,0.3-1.5,0.8S654.1,9.4,654.1,10.4z"/>
		<path class="st3" d="M663.5,7.4l-0.4,0c-0.5,0-1,0.2-1.4,0.5c-0.4,0.3-0.6,0.8-0.7,1.5v4.2h-0.3V7.2h0.3v1.3
			c0.2-0.4,0.4-0.8,0.8-1s0.8-0.4,1.3-0.4c0.2,0,0.3,0,0.4,0.1L663.5,7.4z"/>
		<path class="st3" d="M668.6,13.5c-0.1-0.3-0.1-0.7-0.1-1.2c-0.3,0.4-0.6,0.7-1,0.9s-0.9,0.3-1.5,0.3c-0.6,0-1.1-0.2-1.4-0.5
			s-0.5-0.7-0.5-1.2c0-0.6,0.3-1,0.8-1.4s1.2-0.5,2.1-0.5h1.6V9.1c0-0.5-0.2-0.9-0.5-1.2c-0.3-0.3-0.8-0.4-1.4-0.4
			c-0.6,0-1.1,0.1-1.4,0.4c-0.4,0.3-0.6,0.7-0.6,1.1l-0.3,0c0-0.5,0.2-1,0.7-1.3s1-0.5,1.7-0.5c0.7,0,1.2,0.2,1.6,0.5
			s0.6,0.8,0.6,1.4v3c0,0.7,0.1,1.2,0.2,1.4v0.1H668.6z M666,13.3c0.6,0,1.1-0.1,1.5-0.4s0.7-0.6,1-1.1v-1.5H667
			c-0.9,0-1.6,0.2-2.1,0.5c-0.4,0.3-0.6,0.7-0.6,1.1c0,0.4,0.2,0.7,0.5,1S665.5,13.3,666,13.3z"/>
		<path class="st3" d="M675.3,13.5H675V9.3c0-0.6-0.1-1.1-0.4-1.4c-0.3-0.3-0.7-0.5-1.3-0.5c-0.7,0-1.3,0.3-1.7,0.9
			c-0.3,0.4-0.4,0.8-0.5,1.2v4h-0.3V7.2h0.3v1.5c0.2-0.5,0.5-0.9,0.9-1.2s0.8-0.4,1.3-0.4c0.5,0,1,0.1,1.3,0.4s0.6,0.6,0.7,1.1
			c0.2-0.5,0.5-0.8,0.9-1.1s0.9-0.4,1.4-0.4c0.7,0,1.2,0.2,1.5,0.6c0.3,0.4,0.5,1,0.5,1.7v4.1h-0.3V9.4c0-0.7-0.1-1.2-0.4-1.5
			c-0.3-0.3-0.7-0.5-1.3-0.5c-0.8,0-1.4,0.3-1.8,0.9c-0.3,0.3-0.4,0.7-0.4,1V13.5z"/>
		<path class="st3" d="M603.5,27.9h-0.3v-9h0.3V27.9z"/>
		<path class="st3" d="M607.9,28c-0.5,0-1-0.1-1.4-0.4s-0.8-0.7-1-1.1s-0.4-1-0.4-1.6v-0.3c0-0.6,0.1-1.1,0.4-1.6s0.6-0.9,1-1.1
			s0.9-0.4,1.3-0.4c0.7,0,1.3,0.3,1.7,0.8s0.7,1.2,0.7,2v0.3h-4.8v0.3c0,0.5,0.1,1,0.3,1.4c0.2,0.4,0.5,0.8,0.9,1
			c0.4,0.2,0.8,0.4,1.2,0.4c0.4,0,0.8-0.1,1.1-0.2s0.6-0.4,0.8-0.7L610,27C609.5,27.7,608.8,28,607.9,28z M607.8,21.8
			c-0.6,0-1.1,0.2-1.6,0.7s-0.7,1-0.8,1.8h4.4v-0.1c0-0.4-0.1-0.8-0.3-1.2s-0.4-0.7-0.8-0.9S608.2,21.8,607.8,21.8z"/>
		<path class="st3" d="M615.8,27.9c-0.1-0.3-0.1-0.7-0.1-1.2c-0.3,0.4-0.6,0.7-1,0.9s-0.9,0.3-1.5,0.3c-0.6,0-1.1-0.2-1.4-0.5
			s-0.5-0.7-0.5-1.2c0-0.6,0.3-1,0.8-1.4s1.2-0.5,2.1-0.5h1.6v-0.9c0-0.5-0.2-0.9-0.5-1.2s-0.8-0.4-1.4-0.4c-0.6,0-1.1,0.1-1.4,0.4
			s-0.6,0.7-0.6,1.1l-0.3,0c0-0.5,0.2-1,0.7-1.3s1-0.5,1.7-0.5c0.7,0,1.2,0.2,1.6,0.5s0.6,0.8,0.6,1.4v3c0,0.7,0.1,1.2,0.2,1.4v0.1
			H615.8z M613.2,27.7c0.6,0,1.1-0.1,1.5-0.4s0.7-0.6,1-1.1v-1.5h-1.5c-0.9,0-1.6,0.2-2.1,0.5c-0.4,0.3-0.6,0.7-0.6,1.1
			c0,0.4,0.2,0.7,0.5,1S612.7,27.7,613.2,27.7z"/>
		<path class="st3" d="M618.3,23.1c0.2-0.5,0.5-0.9,0.9-1.2s0.8-0.4,1.3-0.4c0.7,0,1.2,0.2,1.5,0.6s0.5,1,0.5,1.7v4.1h-0.3v-4.1
			c0-0.7-0.1-1.2-0.4-1.5c-0.3-0.3-0.7-0.5-1.3-0.5c-0.5,0-1,0.2-1.4,0.6s-0.7,0.9-0.8,1.5v4.1H618v-6.3h0.3V23.1z"/>
		<path class="st3" d="M624.3,24.7c0-1,0.2-1.8,0.6-2.4s1-0.9,1.8-0.9c0.5,0,0.9,0.1,1.3,0.3s0.7,0.5,0.9,1v-3.8h0.3v9h-0.3v-1
			c-0.2,0.4-0.5,0.6-0.9,0.8s-0.8,0.3-1.3,0.3c-0.7,0-1.3-0.3-1.7-0.9S624.3,25.8,624.3,24.7L624.3,24.7z M624.6,24.8
			c0,0.9,0.2,1.6,0.5,2.1s0.9,0.8,1.5,0.8c0.5,0,1-0.1,1.3-0.3s0.6-0.6,0.8-1v-3c-0.4-1.1-1.1-1.6-2.2-1.6c-0.6,0-1.2,0.3-1.5,0.8
			S624.6,23.8,624.6,24.8z"/>
		<path class="st3" d="M633.9,21.8l-0.4,0c-0.5,0-1,0.2-1.4,0.5s-0.6,0.8-0.7,1.5v4.2h-0.3v-6.3h0.3v1.3c0.2-0.4,0.4-0.8,0.8-1
			s0.8-0.4,1.3-0.4c0.2,0,0.3,0,0.4,0.1L633.9,21.8z"/>
		<path class="st3" d="M634.6,24.6c0-0.6,0.1-1.1,0.3-1.6s0.6-0.9,1-1.1s0.9-0.4,1.4-0.4c0.5,0,1,0.1,1.4,0.4s0.8,0.6,1,1.1
			s0.4,1,0.4,1.6v0.3c0,0.6-0.1,1.2-0.3,1.6s-0.6,0.9-1,1.1s-0.9,0.4-1.4,0.4s-1-0.1-1.4-0.4s-0.8-0.6-1-1.1s-0.4-1-0.4-1.6V24.6z
			 M634.9,24.9c0,0.5,0.1,1,0.3,1.5s0.5,0.8,0.9,1s0.8,0.4,1.3,0.4c0.7,0,1.3-0.3,1.8-0.8s0.7-1.2,0.7-2.1v-0.2c0-0.5-0.1-1-0.3-1.4
			s-0.5-0.8-0.9-1s-0.8-0.4-1.3-0.4c-0.7,0-1.3,0.3-1.8,0.8s-0.7,1.2-0.7,2.1V24.9z"/>
		<path class="st3" d="M646.8,28c-0.5,0-1-0.1-1.4-0.4s-0.8-0.7-1-1.1s-0.4-1-0.4-1.6v-0.3c0-0.6,0.1-1.1,0.4-1.6s0.6-0.9,1-1.1
			s0.9-0.4,1.3-0.4c0.7,0,1.3,0.3,1.7,0.8s0.7,1.2,0.7,2v0.3h-4.8v0.3c0,0.5,0.1,1,0.3,1.4c0.2,0.4,0.5,0.8,0.9,1
			c0.4,0.2,0.8,0.4,1.2,0.4c0.4,0,0.8-0.1,1.1-0.2s0.6-0.4,0.8-0.7l0.2,0.2C648.4,27.7,647.7,28,646.8,28z M646.7,21.8
			c-0.6,0-1.1,0.2-1.6,0.7s-0.7,1-0.8,1.8h4.4v-0.1c0-0.4-0.1-0.8-0.3-1.2s-0.4-0.7-0.8-0.9S647.1,21.8,646.7,21.8z"/>
		<path class="st3" d="M654.5,26.4c0-0.8-0.7-1.3-2-1.6c-0.8-0.2-1.3-0.4-1.6-0.6s-0.5-0.6-0.5-1.1c0-0.5,0.2-0.8,0.6-1.1
			s0.9-0.5,1.5-0.5c0.7,0,1.2,0.2,1.6,0.5s0.6,0.8,0.6,1.3h-0.3c0-0.4-0.2-0.8-0.5-1.1s-0.8-0.4-1.4-0.4c-0.6,0-1,0.1-1.3,0.4
			s-0.5,0.5-0.5,0.9c0,0.3,0.1,0.5,0.2,0.7s0.3,0.3,0.6,0.4s0.7,0.3,1.2,0.4s0.9,0.3,1.2,0.4s0.5,0.4,0.7,0.6s0.2,0.5,0.2,0.8
			c0,0.5-0.2,0.9-0.6,1.2s-0.9,0.5-1.6,0.5c-0.7,0-1.3-0.2-1.7-0.5s-0.7-0.7-0.7-1.2h0.3c0,0.4,0.2,0.8,0.6,1s0.9,0.4,1.5,0.4
			c0.6,0,1-0.1,1.4-0.4S654.5,26.7,654.5,26.4z"/>
		<path class="st3" d="M657.2,19.9v1.7h1.4v0.3h-1.4v4.5c0,0.4,0.1,0.8,0.2,1c0.1,0.2,0.4,0.3,0.7,0.3c0.2,0,0.4,0,0.6-0.1l0.1,0.3
			c-0.1,0-0.3,0.1-0.7,0.1c-0.5,0-0.8-0.1-1-0.4c-0.2-0.3-0.3-0.7-0.3-1.2v-4.5h-1.2v-0.3h1.2v-1.7H657.2z"/>
		<path class="st3" d="M663.1,21.8l-0.4,0c-0.5,0-1,0.2-1.4,0.5s-0.6,0.8-0.7,1.5v4.2h-0.3v-6.3h0.3v1.3c0.2-0.4,0.4-0.8,0.8-1
			s0.8-0.4,1.3-0.4c0.2,0,0.3,0,0.4,0.1L663.1,21.8z"/>
		<path class="st3" d="M666.5,28c-0.5,0-1-0.1-1.4-0.4s-0.8-0.7-1-1.1s-0.4-1-0.4-1.6v-0.3c0-0.6,0.1-1.1,0.4-1.6s0.6-0.9,1-1.1
			s0.9-0.4,1.3-0.4c0.7,0,1.3,0.3,1.7,0.8s0.7,1.2,0.7,2v0.3h-4.8v0.3c0,0.5,0.1,1,0.3,1.4c0.2,0.4,0.5,0.8,0.9,1
			c0.4,0.2,0.8,0.4,1.2,0.4c0.4,0,0.8-0.1,1.1-0.2s0.6-0.4,0.8-0.7l0.2,0.2C668.1,27.7,667.4,28,666.5,28z M666.4,21.8
			c-0.6,0-1.1,0.2-1.6,0.7s-0.7,1-0.8,1.8h4.4v-0.1c0-0.4-0.1-0.8-0.3-1.2s-0.4-0.7-0.8-0.9S666.8,21.8,666.4,21.8z"/>
		<path class="st3" d="M670.7,27.9h-0.3v-9h0.3V27.9z"/>
		<path class="st3" d="M673.1,27.9h-0.3v-9h0.3V27.9z"/>
		<path class="st3" d="M679.3,27.9c-0.1-0.3-0.1-0.7-0.1-1.2c-0.3,0.4-0.6,0.7-1,0.9s-0.9,0.3-1.5,0.3c-0.6,0-1.1-0.2-1.4-0.5
			s-0.5-0.7-0.5-1.2c0-0.6,0.3-1,0.8-1.4s1.2-0.5,2.1-0.5h1.6v-0.9c0-0.5-0.2-0.9-0.5-1.2s-0.8-0.4-1.4-0.4c-0.6,0-1.1,0.1-1.4,0.4
			s-0.6,0.7-0.6,1.1l-0.3,0c0-0.5,0.2-1,0.7-1.3s1-0.5,1.7-0.5c0.7,0,1.2,0.2,1.6,0.5s0.6,0.8,0.6,1.4v3c0,0.7,0.1,1.2,0.2,1.4v0.1
			H679.3z M676.7,27.7c0.6,0,1.1-0.1,1.5-0.4s0.7-0.6,1-1.1v-1.5h-1.5c-0.9,0-1.6,0.2-2.1,0.5c-0.4,0.3-0.6,0.7-0.6,1.1
			c0,0.4,0.2,0.7,0.5,1S676.2,27.7,676.7,27.7z"/>
	</g>
</g>
<g id="ARROWS">
	<g>
		<g>
			<line class="st4" x1="320.3" y1="27.3" x2="320.3" y2="64.3"/>
			<g>
				<polygon class="st1" points="316.2,61 316.9,60.3 320.3,63.9 323.6,60.3 324.3,61 320.3,65.4 				"/>
			</g>
		</g>
	</g>
	<g>
		<g>
			<line class="st4" x1="320.3" y1="118.6" x2="320.3" y2="155.6"/>
			<g>
				<polygon class="st1" points="316.2,152.3 316.9,151.6 320.3,155.2 323.6,151.6 324.3,152.3 320.3,156.7 				"/>
			</g>
		</g>
	</g>
	<g>
		<g>
			<line class="st4" x1="320.3" y1="235.7" x2="320.3" y2="272.7"/>
			<g>
				<polygon class="st1" points="316.2,269.4 316.9,268.7 320.3,272.4 323.6,268.7 324.3,269.4 320.3,273.8 				"/>
			</g>
		</g>
	</g>
	<g>
		<g>
			<line class="st4" x1="320.3" y1="327.5" x2="320.3" y2="364.5"/>
			<g>
				<polygon class="st1" points="316.2,361.2 316.9,360.5 320.3,364.1 323.6,360.5 324.3,361.2 320.3,365.6 				"/>
			</g>
		</g>
	</g>
	<g>
		<g>
			<line class="st4" x1="320.3" y1="419.7" x2="320.3" y2="456.8"/>
			<g>
				<polygon class="st1" points="316.2,453.4 316.9,452.8 320.3,456.4 323.6,452.8 324.3,453.4 320.3,457.8 				"/>
			</g>
		</g>
	</g>
	<g>
		<g>
			<line class="st4" x1="532.4" y1="472" x2="383.3" y2="472"/>
			<g>
				<polygon class="st1" points="386.6,467.9 387.3,468.6 383.7,472 387.3,475.3 386.6,476 382.2,472 				"/>
			</g>
		</g>
	</g>
	<g>
		<g>
			<polyline class="st4" points="23.8,288.1 0.5,288.1 0.5,530.6 320.3,530.6 320.3,511.5 			"/>
			<g>
				<polygon class="st1" points="20.5,284 19.8,284.8 23.5,288.1 19.8,291.5 20.5,292.2 24.9,288.1 				"/>
			</g>
		</g>
	</g>
	<polyline class="st4" points="320.3,343.6 92.1,343.6 92.1,327.3 	"/>
	<g>
		<g>
			<polyline class="st4" points="383.3,288.1 680.6,288.1 680.6,530.6 320.3,530.6 320.3,511.5 			"/>
			<g>
				<polygon class="st1" points="386.6,292.2 387.3,291.5 383.7,288.1 387.3,284.8 386.6,284 382.2,288.1 				"/>
			</g>
		</g>
	</g>
	<g>
		<g>
			<line class="st4" x1="92.1" y1="274.1" x2="92.1" y2="236.8"/>
			<g>
				<polygon class="st1" points="96.2,240.1 95.4,240.8 92.1,237.2 88.7,240.8 88,240.1 92.1,235.7 				"/>
			</g>
		</g>
	</g>
	<g>
	</g>
	<g>
	</g>
	<g>
	</g>
	<g>
	</g>
	<g>
	</g>
	<g>
	</g>
	<g>
	</g>
</g>
</svg>
